<svg width="129" height="26" viewBox="0 0 129 26" fill="none" xmlns="http://www.w3.org/2000/svg">
<g clip-path="url(#clip0_2592_16981)">
<mask id="mask0_2592_16981" style="mask-type:luminance" maskUnits="userSpaceOnUse" x="0" y="0" width="129" height="26">
<path d="M128.233 0H0.31958V25.4786H128.233V0Z" fill="white"/>
</mask>
<g mask="url(#mask0_2592_16981)">
<path d="M122.803 3.22665C122.803 1.76868 123.97 0.573628 125.399 0.573628C126.089 0.573628 126.733 0.860439 127.232 1.33846C127.732 1.84039 127.995 2.50962 127.995 3.20275C127.995 3.89589 127.732 4.56512 127.232 5.06704C126.733 5.56895 126.089 5.85577 125.399 5.85577C123.97 5.85577 122.803 4.68462 122.803 3.22665ZM122.588 3.22665C122.588 4.80413 123.851 6.0948 125.422 6.0948C126.185 6.0948 126.875 5.80798 127.399 5.25827C127.923 4.70853 128.233 3.99149 128.233 3.22665C128.233 2.46182 127.947 1.74478 127.399 1.19506C126.852 0.645332 126.161 0.358517 125.422 0.358517C123.851 0.358517 122.588 1.64918 122.588 3.22665ZM124.351 4.92363H124.756V3.58517H125.66C125.803 3.58517 125.922 3.58517 126.018 3.63298C126.137 3.70468 126.208 3.84808 126.232 4.03929L126.28 4.56512C126.28 4.68462 126.28 4.75633 126.28 4.80413C126.304 4.85193 126.304 4.87583 126.327 4.89974H126.828V4.82803C126.756 4.80413 126.733 4.73243 126.709 4.63682C126.685 4.58902 126.685 4.49342 126.685 4.37391L126.661 3.96759C126.661 3.77638 126.613 3.65687 126.566 3.58517C126.494 3.51347 126.399 3.44177 126.28 3.39396C126.423 3.32226 126.518 3.22665 126.59 3.10715C126.661 2.98764 126.685 2.84424 126.685 2.65303C126.685 2.29451 126.542 2.0555 126.28 1.91209C126.137 1.84039 125.946 1.81649 125.732 1.81649H124.374L124.351 4.92363ZM124.732 3.22665V2.1511H125.684C125.827 2.1511 125.946 2.17501 126.018 2.22281C126.161 2.29451 126.232 2.46182 126.232 2.67693C126.232 2.89204 126.185 3.03544 126.065 3.10715C125.97 3.17885 125.827 3.22665 125.637 3.22665H124.732ZM11.8939 7.17036L0.31958 25.4308H8.22633L19.372 7.98297L11.8939 7.17036ZM59.5485 6.764V0H37.0431C33.9709 0.191209 32.6372 1.67308 31.637 2.72473C30.5653 3.84808 29.9699 6.21429 29.9699 6.21429V0.0478023H17.9907C17.0857 0.0478023 16.2283 0.430221 15.5853 1.33846C14.9185 2.22281 12.1797 6.764 12.1797 6.764H59.5485ZM120.754 6.764V0H96.6771C93.6285 0.191209 92.2714 1.67308 91.271 2.72473C90.1993 3.84808 89.604 6.21429 89.604 6.21429V6.764H120.754ZM67.4558 0.0239011H60.7159V6.764H67.4558V0.0239011ZM89.5327 0.0239011H82.8162V6.764H89.5327V0.0239011ZM89.5327 9.20194L82.9119 8.79564V16.6113C82.9119 16.6113 82.888 18.858 80.7208 18.858H69.3843C69.3843 18.858 67.4558 18.6907 67.4558 16.6352V7.74399L60.7871 7.26593V19.2404C61.8588 24.9767 67.0268 25.4308 67.0268 25.4308C67.0268 25.4308 67.5509 25.4547 67.6461 25.4786H83.0071C83.0071 25.4786 89.58 24.9528 89.58 18.5951L89.5327 9.20194ZM23.111 25.4308H54.5953C60.0727 24.3314 60.6441 19.3121 60.6441 19.3121C60.9062 17.8303 60.7632 16.6113 60.7632 16.6113C60.5968 15.6074 58.6916 11.1618 54.5953 10.7794C52.1421 10.5404 30.3033 8.79564 30.3033 8.79564C30.732 10.9945 31.7084 12.1179 32.3753 12.7393C33.8995 14.1973 36.3048 14.6275 36.3048 14.6275C36.8764 14.6753 53.1425 16.0376 53.1425 16.0376C53.6661 16.0616 54.6426 16.205 54.6187 17.4957C54.6187 17.6629 54.4762 18.7863 53.2376 18.7863H29.6841V8.7478L23.1349 8.26979C23.111 8.26979 23.111 25.4308 23.111 25.4308ZM89.58 25.4786H113.681C119.731 25.1201 120.588 19.3599 120.588 19.3599C120.802 17.8542 120.635 16.6113 120.635 16.6113C120.469 15.249 118.54 11.138 114.42 10.7316C111.99 10.4926 90.009 9.20194 90.009 9.20194C90.6517 11.4726 91.5331 12.1657 92.1997 12.7871C93.7242 14.269 95.9866 14.6036 95.9866 14.6036C96.5581 14.6514 112.991 16.0376 112.991 16.0376C113.515 16.0616 114.587 16.1094 114.587 17.4C114.587 17.7825 114.396 18.1888 114.158 18.4039C114.158 18.4039 113.586 18.7146 113.039 18.7146H89.6518L89.58 25.4786Z" fill="#00539B"/>
</g>
</g>
<defs>
<clipPath id="clip0_2592_16981">
<rect width="127.913" height="25.4786" fill="white" transform="translate(0.31958)"/>
</clipPath>
</defs>
</svg>
