<svg width="128" height="36" viewBox="0 0 128 36" fill="none" xmlns="http://www.w3.org/2000/svg">
<g clip-path="url(#clip0_2592_17053)">
<path d="M94.7265 11.3721C89.068 11.3721 84.5408 15.8832 84.5408 21.5219C84.5408 27.1607 89.068 31.6717 94.7265 31.6717C100.386 31.6717 104.912 27.1607 104.912 21.5219C104.912 15.9772 100.386 11.3721 94.7265 11.3721ZM94.7265 27.8186C91.2371 27.8186 88.5023 24.9992 88.5023 21.6159C88.5023 18.1387 91.3313 15.4133 94.7265 15.4133C98.2165 15.4133 100.951 18.2327 100.951 21.6159C100.951 24.9992 98.1218 27.8186 94.7265 27.8186Z" fill="#010101"/>
<path d="M44.081 24.9987C42.9492 26.6903 41.063 27.8181 38.8938 27.8181C35.9701 27.8181 33.5179 25.7505 32.8578 23.1191H40.78H48.9852C49.0795 22.6492 49.0795 22.1793 49.0795 21.6154C49.0795 15.9766 44.5525 11.4656 38.8938 11.4656C33.235 11.4656 28.708 15.9766 28.708 21.6154C28.708 27.2542 33.235 31.7652 38.8938 31.7652C43.3264 31.7652 47.099 28.9458 48.5136 24.9987H44.081ZM38.8938 15.3188C41.5345 15.3188 43.798 17.0104 44.7412 19.3599H33.0464C33.9895 17.0104 36.253 15.3188 38.8938 15.3188Z" fill="#010101"/>
<path d="M16.1642 25.0927C15.0325 26.6903 13.1462 27.8181 10.977 27.8181C7.48747 27.8181 4.75239 24.9987 4.75239 21.6154C4.75239 18.1381 7.58177 15.4127 10.977 15.4127C13.2405 15.4127 15.2211 16.6345 16.3529 18.5141H20.6912C19.3709 14.473 15.504 11.4656 10.977 11.4656C5.31827 11.4656 0.79126 15.9766 0.79126 21.6154C0.79126 27.2542 5.31827 31.7652 10.977 31.7652C15.4097 31.7652 19.0879 29.0398 20.5969 25.0927H16.1642Z" fill="#010101"/>
<path d="M62.3773 4.60547H58.0391V31.5776H62.3773V4.60547Z" fill="#010101"/>
<path d="M117.927 10.2443V4.60547H120.945V10.2443L126.321 8.45864L127.264 11.278L121.888 13.0637L125.189 17.5747L122.737 19.3603L119.437 14.8493L116.136 19.3603L113.683 17.5747L116.984 13.0637L111.703 11.278L112.646 8.45864L117.927 10.2443Z" fill="#ED2224"/>
<path d="M75.5809 4.60547H71.2427V8.92854H75.5809V4.60547Z" fill="#010101"/>
<path d="M75.5809 12.2181H71.2427V31.5779H75.5809V12.2181Z" fill="#010101"/>
</g>
<defs>
<clipPath id="clip0_2592_17053">
<rect width="127.322" height="35.7123" fill="white" transform="translate(0.31958)"/>
</clipPath>
</defs>
</svg>
