<svg width="158" height="30" viewBox="0 0 158 30" fill="none" xmlns="http://www.w3.org/2000/svg">
<g clip-path="url(#clip0_2592_16963)">
<path d="M37.0464 19.9155C37.0464 26.2066 40.9214 29.9718 46.6791 29.9718C49.5501 29.9718 51.9661 29.1717 53.3153 27.0695V29.9718H58.571V0.00683594H53.1114V12.7459C51.872 10.6436 49.5815 9.70231 46.7105 9.70231C41.094 9.68663 37.0464 13.5303 37.0464 19.9155ZM53.284 19.9155C53.284 23.5082 50.8366 25.7516 47.9028 25.7516C44.8592 25.7516 42.5217 23.5082 42.5217 19.9155C42.5217 16.2601 44.8749 13.9696 47.9028 13.9696C50.8366 13.9696 53.284 16.2915 53.284 19.9155Z" fill="black"/>
<path d="M75.5615 22.2371C74.934 24.559 73.3494 25.7199 70.855 25.7199C67.9526 25.7199 65.5679 23.9628 65.5052 20.8565H79.264C79.4366 20.0877 79.515 19.2719 79.515 18.3777C79.515 12.8083 75.7184 9.67059 70.1176 9.67059C64.1403 9.67059 60.0299 13.9222 60.0299 19.6955C60.0299 26.1278 64.5639 29.9872 70.8393 29.9872C75.5772 29.9872 78.7933 28.0104 80.2053 24.0726L75.5615 22.2371ZM65.5052 17.2168C66.0229 14.9733 67.8898 13.6555 70.1333 13.6555C72.5807 13.6555 74.2437 14.9733 74.2437 17.0442L74.2123 17.2168H65.5052Z" fill="black"/>
<path d="M95.8154 22.2371C95.1879 24.559 93.6033 25.7199 91.1089 25.7199C88.2065 25.7199 85.8218 23.9628 85.7591 20.8565H99.5179C99.6905 20.0877 99.7689 19.2719 99.7689 18.3777C99.7689 12.8083 95.9723 9.67059 90.3715 9.67059C84.3942 9.67059 80.2838 13.9222 80.2838 19.6955C80.2838 26.1278 84.8178 29.9872 91.0932 29.9872C95.8311 29.9872 99.0472 28.0104 100.459 24.0726L95.8154 22.2371ZM85.7591 17.2168C86.2768 14.9733 88.1437 13.6555 90.3872 13.6555C92.8346 13.6555 94.4976 14.9733 94.4976 17.0442L94.4662 17.2168H85.7591Z" fill="black"/>
<path d="M119.034 30.0032V25.0613H107.566L118.72 14.2049V9.68658H101.071V14.3931H111.849L100.726 25.2966V30.0032H119.034Z" fill="black"/>
<path d="M134.989 22.2371C134.362 24.559 132.777 25.7199 130.283 25.7199C127.38 25.7199 124.996 23.9628 124.933 20.8565H138.692C138.864 20.0877 138.943 19.2719 138.943 18.3777C138.943 12.8083 135.146 9.67059 129.545 9.67059C123.568 9.67059 119.458 13.9222 119.458 19.6955C119.458 26.1278 123.992 29.9872 130.267 29.9872C135.005 29.9872 138.221 28.0104 139.633 24.0726L134.989 22.2371ZM124.933 17.2168C125.451 14.9733 127.318 13.6555 129.561 13.6555C132.009 13.6555 133.672 14.9733 133.672 17.0442L133.64 17.2168H124.933Z" fill="black"/>
<path d="M31.4454 9.68658H24.7151V13.6244H31.4454V9.68658Z" fill="#40AB5D"/>
<path d="M31.4454 15.1462H24.7151V19.084H31.4454V15.1462Z" fill="url(#paint0_linear_2592_16963)"/>
<path d="M31.4454 20.6059H24.7151V24.5437H31.4454V20.6059Z" fill="url(#paint1_linear_2592_16963)"/>
<path d="M7.04994 26.0656H0.31958V30.0034H7.04994V26.0656Z" fill="url(#paint2_linear_2592_16963)"/>
<path d="M15.1766 26.0656H8.44629V30.0034H15.1766V26.0656Z" fill="url(#paint3_linear_2592_16963)"/>
<path d="M23.3189 26.0656H16.5885V30.0034H23.3189V26.0656Z" fill="url(#paint4_linear_2592_16963)"/>
<path d="M31.4454 26.0656H24.7151V30.0034H31.4454V26.0656Z" fill="url(#paint5_linear_2592_16963)"/>
<path d="M23.3189 20.6059H16.5885V24.5437H23.3189V20.6059Z" fill="url(#paint6_linear_2592_16963)"/>
<path d="M15.1766 20.6059H8.44629V24.5437H15.1766V20.6059Z" fill="url(#paint7_linear_2592_16963)"/>
<path d="M15.1766 15.1462H8.44629V19.084H15.1766V15.1462Z" fill="url(#paint8_linear_2592_16963)"/>
<path d="M151.886 16.6993C151.886 16.9033 151.886 17.2798 151.886 17.2798H157.204C157.204 17.2798 157.204 16.2757 157.204 15.7266C157.204 12.2438 155.024 9.71796 151.368 9.71796C149.015 9.71796 147.352 10.8632 146.489 12.7615V9.71796H140.998V30.0032H146.489V16.9347C146.489 14.8638 147.603 13.7185 149.313 13.7185C150.882 13.7342 151.886 15.2089 151.886 16.6993Z" fill="black"/>
</g>
<defs>
<linearGradient id="paint0_linear_2592_16963" x1="28.1132" y1="19.1181" x2="28.0499" y2="15.0884" gradientUnits="userSpaceOnUse">
<stop stop-color="#358C7B"/>
<stop offset="0.5256" stop-color="#33A65E"/>
</linearGradient>
<linearGradient id="paint1_linear_2592_16963" x1="24.6161" y1="24.3415" x2="31.5474" y2="20.8098" gradientUnits="userSpaceOnUse">
<stop stop-color="#222B90"/>
<stop offset="1" stop-color="#367B99"/>
</linearGradient>
<linearGradient id="paint2_linear_2592_16963" x1="0.320811" y1="28.036" x2="7.04554" y2="28.036" gradientUnits="userSpaceOnUse">
<stop stop-color="#FF9900"/>
<stop offset="1" stop-color="#FF8000"/>
</linearGradient>
<linearGradient id="paint3_linear_2592_16963" x1="8.45379" y1="28.036" x2="15.1785" y2="28.036" gradientUnits="userSpaceOnUse">
<stop stop-color="#FF8000"/>
<stop offset="1" stop-color="#CC1953"/>
</linearGradient>
<linearGradient id="paint4_linear_2592_16963" x1="16.5866" y1="28.036" x2="23.3113" y2="28.036" gradientUnits="userSpaceOnUse">
<stop stop-color="#CC1953"/>
<stop offset="1" stop-color="#241284"/>
</linearGradient>
<linearGradient id="paint5_linear_2592_16963" x1="24.7115" y1="28.036" x2="31.4362" y2="28.036" gradientUnits="userSpaceOnUse">
<stop stop-color="#222B90"/>
<stop offset="1" stop-color="#3559A6"/>
</linearGradient>
<linearGradient id="paint6_linear_2592_16963" x1="16.3211" y1="23.6365" x2="23.5767" y2="21.5148" gradientUnits="userSpaceOnUse">
<stop stop-color="#CC1953"/>
<stop offset="1" stop-color="#241284"/>
</linearGradient>
<linearGradient id="paint7_linear_2592_16963" x1="8.21443" y1="21.2647" x2="15.4179" y2="23.8866" gradientUnits="userSpaceOnUse">
<stop offset="0.00266984" stop-color="#FFCC00"/>
<stop offset="0.9999" stop-color="#CE1938"/>
</linearGradient>
<linearGradient id="paint8_linear_2592_16963" x1="9.01901" y1="14.5343" x2="14.6133" y2="19.6965" gradientUnits="userSpaceOnUse">
<stop offset="0.00266984" stop-color="#FFD100"/>
<stop offset="1" stop-color="#FD5A22"/>
</linearGradient>
<clipPath id="clip0_2592_16963">
<rect width="156.885" height="29.9964" fill="white" transform="translate(0.31958)"/>
</clipPath>
</defs>
</svg>
