<svg width="121" height="36" viewBox="0 0 121 36" fill="none" xmlns="http://www.w3.org/2000/svg">
<g clip-path="url(#clip0_2592_16987)">
<path d="M79.2598 0.00763294C79.5587 -0.0216011 79.8581 0.036867 80.1424 0.153803C80.7266 0.373059 81.1306 0.899271 81.1605 1.51318C81.2803 2.84334 80.3672 3.51572 79.1547 3.48648C78.9902 3.48648 78.8252 3.45725 78.6608 3.42802C77.733 3.20876 77.2539 2.50714 77.3437 1.49857C77.4183 0.694631 78.0619 0.0953353 78.945 0.02225C79.0501 0.00763294 79.1547 -0.00698406 79.2598 0.00763294Z" fill="#222222"/>
<path d="M25.4503 0.110674C25.2258 0.0375889 24.9863 -0.0062622 24.7468 0.00835485C23.5494 0.00835485 22.8459 0.578418 22.7561 1.61623C22.6963 2.66866 23.3249 3.28257 24.1781 3.44336C24.5073 3.50182 24.8516 3.50182 25.1809 3.44336C25.9592 3.32642 26.5429 2.7125 26.6028 1.95242C26.6777 1.06078 26.2585 0.373781 25.4503 0.110674Z" fill="#222222"/>
<path d="M39.4453 6.21983L39.2956 6.30771C39.2902 6.2972 39.2849 6.29045 39.2808 6.2855C39.2738 6.27657 39.271 6.27319 39.2806 6.26388C39.2507 6.23464 39.2208 6.2054 39.1908 6.16152C38.7867 5.57685 38.158 5.16758 37.4546 5.02141C36.7062 4.87524 35.9578 4.87524 35.2094 5.02141C34.2365 5.19681 33.3684 5.62074 32.5452 6.11769C32.5165 6.1337 32.4889 6.15297 32.461 6.17252C32.3868 6.22446 32.3096 6.27847 32.2009 6.27847C32.167 6.17911 32.1392 6.08573 32.112 5.99425C32.0792 5.88405 32.0472 5.77635 32.0063 5.66457C31.9165 5.41607 31.7518 5.25528 31.4824 5.25528H29.6115C29.4318 5.25528 29.2523 5.3576 29.1924 5.53302C29.1624 5.64992 29.1475 5.76688 29.1475 5.88383V16.028C29.1475 16.525 29.2822 16.6712 29.8061 16.6712H31.8117C32.3655 16.6712 32.4853 16.5542 32.4853 16.0134V8.22256C32.4553 8.10561 32.5302 7.97406 32.6499 7.94482C33.4582 7.56477 34.3712 7.38939 35.2693 7.44781C35.7782 7.47705 36.2123 7.82786 36.317 8.32487C36.3769 8.57337 36.3918 8.83647 36.3918 9.08492V15.9988C36.3918 16.5396 36.5116 16.6712 37.0654 16.6712H38.652C38.8915 16.6712 39.116 16.6712 39.3405 16.6565C39.5501 16.6565 39.7147 16.5104 39.7147 16.3057C39.7446 16.1596 39.7446 16.028 39.7446 15.8819V8.19332C39.7297 8.07637 39.8045 7.95941 39.9243 7.93017C40.7325 7.56477 41.6156 7.38939 42.4987 7.44781C42.9777 7.47705 43.3968 7.79863 43.5165 8.2518C43.5914 8.5149 43.6213 8.77799 43.6063 9.05573V15.8234C43.6063 15.9842 43.6063 16.1449 43.6362 16.3057C43.6662 16.4812 43.8159 16.6274 43.9955 16.642C44.1152 16.6565 44.2349 16.6565 44.3547 16.6565H46.1808C46.8543 16.6565 46.9441 16.5689 46.9441 15.9111V8.33946C46.9441 8.16408 46.9441 8.0033 46.9292 7.84251C46.8693 7.08241 46.6597 6.38078 46.0909 5.81071C45.4922 5.19681 44.7139 4.96294 43.8608 4.91909C42.6783 4.86062 41.5108 5.12373 40.4631 5.64992C40.1126 5.82742 39.7732 6.02698 39.4453 6.21983Z" fill="#222222"/>
<path d="M59.6662 35.9367C60.2651 35.9221 60.8641 35.9221 61.4624 35.9367C63.8424 35.849 66.2071 35.6006 68.5571 35.1913C72.6282 34.4458 76.5801 33.1449 80.2772 31.3177C82.2379 30.353 84.094 29.1983 85.8151 27.8827C86.0247 27.7366 86.1892 27.5466 86.309 27.3273C86.3389 27.2688 86.3689 27.1958 86.3836 27.1373C86.5034 26.6549 86.2044 26.1579 85.71 26.041C85.4111 25.968 85.0817 26.0118 84.8122 26.1579C83.0012 26.9765 81.1451 27.6781 79.2443 28.292C75.6371 29.4614 71.91 30.2945 68.1384 30.7623C66.5218 30.9669 64.9052 31.1131 63.2734 31.157C60.2504 31.2593 57.2116 31.1277 54.2032 30.7623C52.1077 30.4992 50.0272 30.1338 47.9616 29.666C41.8099 28.2628 35.9426 25.8948 30.5691 22.6499C30.4494 22.5768 30.3148 22.5183 30.18 22.4599C29.9705 22.3722 29.731 22.4306 29.5813 22.5914C29.4316 22.7522 29.3867 22.9714 29.4765 23.176C29.5364 23.3222 29.6412 23.4684 29.7609 23.5707C29.8864 23.6861 30.011 23.8014 30.1353 23.9166C30.5152 24.2683 30.8929 24.618 31.2876 24.9593C36.9154 29.8268 43.3666 33.1741 50.7157 34.8405C52.8411 35.3228 55.0114 35.6444 57.1969 35.8052C57.7458 35.8442 58.2941 35.8701 58.8429 35.8961C59.1173 35.9091 59.3918 35.9221 59.6662 35.9367Z" fill="#222222"/>
<path d="M70.3238 13.5874C70.369 13.4413 70.4136 13.2988 70.4588 13.1562C70.5035 13.0137 70.5486 12.8712 70.5933 12.725C70.9374 11.5928 71.2815 10.4643 71.6256 9.33583L71.6262 9.33403C71.9703 8.20482 72.3144 7.07561 72.6591 5.94276L72.7484 5.67961C72.8235 5.41652 73.0778 5.25573 73.3473 5.25573H75.6222C76.1912 5.25573 76.3109 5.41652 76.1166 5.94276L75.2182 8.26684C74.7172 9.53794 74.2158 10.8127 73.7148 12.0875L73.7143 12.0888C73.2128 13.3643 72.7113 14.6397 72.2099 15.9115C72.1946 15.9554 72.1761 15.9993 72.1576 16.0431C72.1385 16.087 72.12 16.1308 72.1048 16.1746C72.0002 16.4816 71.6861 16.6862 71.3567 16.657C70.6978 16.6424 70.0395 16.6424 69.3807 16.657C68.9168 16.6716 68.6473 16.467 68.4829 16.0577C68.2956 15.5754 68.105 15.0894 67.9139 14.6033C67.7233 14.1173 67.5322 13.6313 67.3454 13.1489C66.9692 12.1878 66.5902 11.2268 66.2113 10.2646L66.2102 10.2616C65.6842 8.9273 65.1577 7.59097 64.6361 6.24968C64.5462 6.0743 64.4863 5.86963 64.4417 5.67961C64.3965 5.38728 64.5016 5.24112 64.8005 5.24112C65.3706 5.23135 65.9407 5.23463 66.5058 5.23789C66.7868 5.2395 67.0672 5.24112 67.3454 5.24112C67.7042 5.24112 67.8692 5.47499 67.9591 5.78197L68.0495 6.08781C68.1845 6.54512 68.3212 7.00913 68.4676 7.46291C68.7747 8.47865 69.0774 9.49803 69.3807 10.5175C69.684 11.5371 69.9873 12.5568 70.2938 13.5728C70.2791 13.5875 70.2938 13.5874 70.3238 13.5874Z" fill="#222222"/>
<path d="M17.4275 6.68778C17.3677 6.77545 17.2778 6.83392 17.1731 6.86316C17.0833 6.46852 16.9934 6.10306 16.8887 5.73766C16.7839 5.37223 16.6043 5.24068 16.2152 5.24068H14.7783C14.0897 5.24068 14.0149 5.31376 14.0149 5.98616V15.9257C14.0149 16.0427 14.0149 16.1596 14.0299 16.2765C14.0448 16.4665 14.1945 16.6273 14.3891 16.642C14.4939 16.6566 14.6136 16.6566 14.7184 16.6566H16.6642C16.769 16.6566 16.8887 16.6566 16.9934 16.642C17.188 16.642 17.3377 16.4958 17.3527 16.3057C17.3677 16.1742 17.3677 16.0573 17.3677 15.9257V8.90956C17.3677 8.74877 17.3677 8.60258 17.5772 8.52951C18.5202 8.22253 19.4931 8.0325 20.4959 8.12022L20.5169 8.12169C20.7184 8.13579 20.9071 8.14897 21.1096 8.13486C21.379 8.10563 21.4838 8.00332 21.5437 7.74017C21.5736 7.53555 21.5886 7.34552 21.5736 7.14091C21.5736 7.0172 21.5745 6.89262 21.5755 6.76761C21.5782 6.39028 21.5811 6.00854 21.5586 5.63535C21.5287 5.26991 21.394 5.15297 21.0048 5.13836C20.0319 5.06527 19.059 5.35761 18.2807 5.94227C17.9814 6.17619 17.697 6.42463 17.4275 6.68778Z" fill="#222222"/>
<path d="M87.1924 21.6854C88.1801 21.7146 89.1531 21.773 90.1109 22.0215C90.3804 22.0946 90.6347 22.1823 90.8895 22.2993C91.2336 22.4308 91.4579 22.7524 91.5031 23.1032C91.563 23.5125 91.5777 23.9364 91.5478 24.3603C91.3534 26.8598 90.5601 29.2716 89.243 31.4203C88.7638 32.195 88.1801 32.8966 87.5066 33.5105C87.3721 33.6421 87.2071 33.7444 87.0275 33.8028C86.7432 33.876 86.5636 33.7298 86.5489 33.452C86.5636 33.3059 86.5935 33.1597 86.6534 33.0136C87.1772 31.6395 87.6863 30.2802 88.0903 28.8623C88.3299 28.0876 88.4943 27.2983 88.5994 26.4944C88.6293 26.202 88.644 25.9096 88.6141 25.6173C88.5994 25.1204 88.27 24.6965 87.7761 24.5503C87.3122 24.4041 86.8331 24.3164 86.3392 24.2872C84.9622 24.2287 83.5852 24.2872 82.2229 24.4626L80.412 24.6818C80.2176 24.6965 80.0379 24.6818 79.9328 24.5065C79.8283 24.331 79.8729 24.1556 79.978 23.9802C80.0978 23.8194 80.2475 23.6733 80.4272 23.5709C81.5347 22.7962 82.7767 22.3285 84.0938 22.0215C85.112 21.8169 86.1449 21.7146 87.1924 21.6854Z" fill="#222222"/>
<path d="M80.9211 16.2186V5.84055C80.9211 5.38741 80.786 5.25586 80.3221 5.25586H78.1671C77.7026 5.25586 77.5834 5.38741 77.5681 5.84055V15.9555C77.5681 16.0432 77.5681 16.1455 77.5834 16.2333C77.6133 16.511 77.7478 16.6571 78.0473 16.6571C78.8553 16.6717 79.6486 16.6717 80.4572 16.6571C80.7561 16.6425 80.8911 16.511 80.9211 16.2186Z" fill="#222222"/>
<path d="M23.0106 10.9269V5.73781C23.0256 5.38699 23.1603 5.25544 23.5195 5.24082C24.2978 5.2262 25.0761 5.2262 25.8545 5.24082C26.1987 5.24082 26.3035 5.34314 26.3334 5.67933C26.3484 5.81088 26.3484 5.92778 26.3484 6.05933V15.7943C26.3484 15.9551 26.3334 16.1159 26.3184 16.2767C26.3035 16.4667 26.1538 16.5982 25.9592 16.6129C25.8695 16.6275 25.7946 16.6275 25.7048 16.6275H23.6243C23.5495 16.6275 23.4896 16.6275 23.4147 16.6129C23.2052 16.5982 23.0256 16.4374 23.0106 16.2328C22.9956 16.1159 22.9956 15.999 22.9956 15.882C23.0106 14.2595 23.0106 12.5932 23.0106 10.9269Z" fill="#222222"/>
<path fill-rule="evenodd" clip-rule="evenodd" d="M11.2161 7.53583C11.5304 8.22286 11.74 8.96832 11.7998 9.72842C11.9046 10.9562 11.8747 12.1695 11.4705 13.368C11.1862 14.3035 10.6473 15.1513 9.91391 15.8091C8.91108 16.6861 7.71364 17.0077 6.39648 16.8762C5.45352 16.7884 4.54048 16.4376 3.79209 15.8676C3.71126 15.9352 3.71952 16.0203 3.72751 16.1026C3.72988 16.127 3.73222 16.1511 3.73222 16.1745V20.3403C3.73222 20.7875 3.73222 21.014 3.61897 21.1288C3.50268 21.2466 3.26698 21.2466 2.78926 21.2466C2.60979 21.2466 2.43031 21.245 2.25084 21.2434C1.89161 21.2401 1.53197 21.2369 1.17274 21.2466C0.828483 21.2612 0.529128 21.2028 0.334548 20.8958C0.31958 15.7945 0.31958 10.6639 0.31958 5.54796C0.559064 5.28484 0.873388 5.24098 1.21764 5.2556C1.51755 5.26536 1.82413 5.26208 2.12847 5.25883C2.27978 5.25721 2.4306 5.2556 2.57971 5.2556C2.98384 5.2556 3.13352 5.38716 3.25326 5.75258C3.27571 5.82565 3.29442 5.89878 3.31313 5.97185C3.33183 6.04492 3.35055 6.11804 3.373 6.19111C3.373 6.2057 3.40293 6.22035 3.43287 6.23494C3.55261 6.17646 3.65739 6.10339 3.74719 6.01568C5.09429 5.03634 6.5761 4.68554 8.22252 5.03634C9.65947 5.35792 10.6024 6.27877 11.2161 7.53583ZM7.53402 13.9235C7.8783 13.6165 8.11776 13.2072 8.22252 12.7541C8.49199 11.8625 8.49199 10.927 8.40215 9.99151C8.3722 9.47991 8.23749 8.96832 8.013 8.5006C7.75856 7.93053 7.21969 7.53588 6.59108 7.44817C5.693 7.27273 4.83984 7.44817 4.01661 7.82822C3.82203 7.90129 3.70229 8.07667 3.71725 8.28134C3.72723 8.86601 3.72391 9.45068 3.72058 10.0353C3.71892 10.3277 3.71725 10.6201 3.71725 10.9124V13.5581C3.70229 13.7335 3.80706 13.8943 3.97171 13.9674C4.64525 14.3182 5.39364 14.4789 6.15701 14.4351C6.66589 14.4351 7.14487 14.2451 7.53402 13.9235Z" fill="#222222"/>
<path fill-rule="evenodd" clip-rule="evenodd" d="M120.092 10.0498V10.1083C120.032 10.0498 120.002 9.96218 120.032 9.88905V9.77215C120.032 9.77215 120.032 9.7575 120.047 9.7575H120.032V9.61136H120.062C120.062 9.60401 120.058 9.60037 120.054 9.59672C120.05 9.59307 120.047 9.58942 120.047 9.58213C120.017 9.30438 119.957 9.02664 119.882 8.76355C119.328 6.83411 118.086 5.5624 116.065 5.06545C115.122 4.84619 114.165 4.81696 113.206 4.96313C111.186 5.25547 109.734 6.30791 109.031 8.17888C108.342 9.96218 108.357 11.9209 109.045 13.7041C109.644 15.3266 110.842 16.3498 112.563 16.7737C113.476 16.993 114.434 17.0514 115.377 16.9198C118.52 16.5544 119.822 14.2303 120.032 12.2132H120.017V12.0085L120.016 12.0023C120.001 11.9173 119.989 11.8464 120.077 11.7893V11.8185C120.077 11.8039 120.092 11.7747 120.107 11.7601V10.0791C120.107 10.0718 120.103 10.0681 120.099 10.0645C120.095 10.0608 120.092 10.0571 120.092 10.0498ZM116.499 12.8271C116.409 13.134 116.275 13.4118 116.08 13.6749C115.751 14.128 115.227 14.4203 114.658 14.4642C114.374 14.4934 114.089 14.4934 113.805 14.435C113.176 14.318 112.652 13.9088 112.398 13.3387C112.173 12.8856 112.039 12.3886 111.994 11.8916C111.919 11.0292 111.904 10.1668 112.114 9.31898C112.189 8.98281 112.338 8.64664 112.518 8.35425C112.847 7.82806 113.416 7.4919 114.045 7.44801C114.329 7.41877 114.613 7.41877 114.898 7.47725C115.496 7.59421 115.99 7.97426 116.26 8.51504C116.514 9.02664 116.664 9.59672 116.694 10.1668C116.709 10.4299 116.724 10.693 116.709 10.9561C116.754 11.5993 116.679 12.2278 116.499 12.8271Z" fill="#222222"/>
<path fill-rule="evenodd" clip-rule="evenodd" d="M91.7726 0.110718H93.8531C94.3018 0.110718 94.4215 0.213037 94.4368 0.666166V16.0725C94.4215 16.4964 94.3018 16.628 93.883 16.628C93.5346 16.6376 93.1866 16.6345 92.8338 16.6312C92.6563 16.6296 92.4772 16.628 92.2964 16.628H91.9371C91.6828 16.628 91.4731 16.4672 91.4133 16.2333C91.3833 16.0579 91.3234 15.8825 91.2483 15.7217C91.1644 15.74 91.1094 15.7868 91.0544 15.8336C91.0212 15.8617 90.9886 15.8898 90.9494 15.9117C89.5571 16.9203 88.0304 17.1688 86.3991 16.6718C85.2018 16.321 84.3785 15.5024 83.8095 14.4354C83.3157 13.4707 83.0614 12.4036 83.0614 11.322C83.0314 10.1672 83.136 9.02709 83.5852 7.94547C84.0491 6.81991 84.7673 5.86983 85.9199 5.34361C87.5665 4.59814 89.1977 4.75893 90.7544 5.65057C90.7865 5.66832 90.8154 5.68879 90.8443 5.7091C90.9102 5.7556 90.9749 5.80118 91.0691 5.81136C91.1236 5.73693 91.1143 5.66255 91.1056 5.58812C91.1024 5.56019 91.0991 5.53231 91.0991 5.50438V0.768486C91.0991 0.213037 91.2036 0.110718 91.7726 0.110718ZM91.1138 13.5291V10.8689C91.1138 10.6458 91.1127 10.4236 91.1121 10.2017C91.1089 9.53657 91.1062 8.87349 91.129 8.19392C91.1437 8.00389 91.0392 7.82851 90.8595 7.77004C90.1408 7.44846 89.3475 7.30227 88.5542 7.37539C87.8959 7.41922 87.2969 7.78463 86.9828 8.35471C86.8483 8.58862 86.7584 8.82247 86.6833 9.07098C86.459 9.96257 86.3838 10.8981 86.5036 11.8189C86.5488 12.3305 86.6833 12.8275 86.9229 13.2953C87.237 13.8946 87.836 14.3039 88.5242 14.3769C89.3328 14.4939 90.156 14.3331 90.8742 13.9384C91.0392 13.8653 91.1437 13.7046 91.1138 13.5291Z" fill="#222222"/>
<path fill-rule="evenodd" clip-rule="evenodd" d="M52.4072 11.8771C53.5297 12.0817 54.6822 12.0963 55.8048 11.9209C56.4636 11.8332 57.0919 11.6431 57.6756 11.3362C58.3491 10.9562 58.8435 10.43 59.0526 9.69911C59.577 7.85738 58.7684 6.00101 56.8077 5.314C55.8499 5.00704 54.8318 4.90472 53.8291 5.03627C51.4642 5.29938 49.9225 6.57103 49.219 8.77822C48.7251 10.2838 48.785 11.8186 49.1891 13.3387C49.713 15.2828 51.0301 16.4376 53.0209 16.8468C54.1584 17.0953 55.3109 17.0515 56.4483 16.8761C57.0473 16.7737 57.6457 16.6276 58.2146 16.4083C58.5588 16.2768 58.7384 16.0721 58.7237 15.6921C58.7134 15.4587 58.7167 15.2189 58.7199 14.9769C58.7221 14.8551 58.7237 14.7328 58.7237 14.6104C58.7237 14.1719 58.5441 14.0403 58.1101 14.1427C57.6756 14.245 57.2569 14.3327 56.8224 14.4204C55.8946 14.6104 54.9368 14.6104 54.0087 14.4496C52.7365 14.2011 51.9132 13.1341 51.9881 11.8186L52.0248 11.8225C52.1496 11.8359 52.2846 11.8504 52.4072 11.8771ZM52.033 9.64063C52.0779 9.28982 52.1826 8.95365 52.3174 8.63208C52.7664 7.56499 53.7094 7.19959 54.6673 7.25807C54.9368 7.27266 55.2064 7.33114 55.4606 7.43345C55.8499 7.59423 56.1042 7.94504 56.1489 8.35434C56.1941 8.60284 56.1788 8.86593 56.1042 9.11444C55.9245 9.64063 55.4906 9.85989 54.9668 9.9622C54.6523 10.0353 54.323 10.0645 53.9937 10.0353C53.41 10.0353 52.8113 9.99144 52.2275 9.90373C52.003 9.87449 52.003 9.87449 52.033 9.64063Z" fill="#222222"/>
<path fill-rule="evenodd" clip-rule="evenodd" d="M105.408 11.395C104.63 11.8043 103.762 11.9651 102.894 12.0235C101.891 12.0966 100.888 12.0235 99.9002 11.8481C99.8403 11.8189 99.7652 11.8189 99.6906 11.8189C99.7205 12.1259 99.7804 12.4182 99.855 12.7105C100.125 13.7045 100.813 14.2746 101.831 14.4646C102.849 14.64 103.896 14.5961 104.899 14.3622C105.229 14.2892 105.543 14.2161 105.872 14.1284C106.306 14.0261 106.486 14.1722 106.501 14.5961V15.6485C106.501 16.1017 106.396 16.2478 105.962 16.4086C104.929 16.7887 103.837 16.9933 102.744 17.0079C101.995 17.0372 101.232 16.9641 100.499 16.7887C98.7927 16.3356 97.5949 15.3269 97.0711 13.6606C96.5625 12.0381 96.4874 10.3864 97.0112 8.76393C97.7898 6.30824 99.7053 5.06582 102.22 5.00734C102.968 4.97811 103.732 5.06582 104.45 5.28507C105.738 5.70898 106.591 6.52751 106.905 7.84304C107.025 8.36928 107.025 8.92472 106.92 9.45091C106.755 10.2987 106.202 11.0149 105.408 11.395ZM100.364 8.09154C100.005 8.55931 99.8703 9.11474 99.7652 9.68482C99.7352 9.81637 99.7951 9.87484 99.9302 9.88943C100.529 9.97715 101.127 10.021 101.741 10.0356C102.055 10.0502 102.37 10.021 102.669 9.96251C103.223 9.8602 103.717 9.64093 103.867 9.05626C104.061 8.26692 103.807 7.4484 102.759 7.28761C102.722 7.28761 102.688 7.28031 102.654 7.27296C102.62 7.26567 102.587 7.25837 102.549 7.25837C101.681 7.17065 100.918 7.37533 100.364 8.09154Z" fill="#222222"/>
</g>
<defs>
<clipPath id="clip0_2592_16987">
<rect width="119.787" height="35.9361" fill="white" transform="translate(0.31958)"/>
</clipPath>
</defs>
</svg>
