<svg width="113" height="48" viewBox="0 0 113 48" fill="none" xmlns="http://www.w3.org/2000/svg">
<g clip-path="url(#clip0_2592_17002)">
<path d="M63.4605 13.5885C63.8604 12.4289 65.6563 12.4555 66.428 11.9462C66.9618 11.5926 67.6514 11.225 67.6746 9.52247C67.6942 8.0605 68.3571 7.82128 68.7612 7.6887C68.7612 7.2755 67.9916 7.40598 67.4697 7.84163C68.2224 5.96857 69.8121 7.53577 69.8121 7.53577C68.8692 5.89983 67.5371 6.65606 67.0551 7.46702C66.5725 8.28218 66.9281 10.1258 65.9327 10.5804C64.94 11.037 64.4132 10.1966 63.7166 10.3987C62.7001 10.694 62.6699 12.0416 61.652 11.6032C62.4314 11.1037 62.3998 10.6337 62.9246 10.0591C64.0091 8.86725 65.7931 10.177 66.1852 6.80057L66.3669 7.43896C68.247 4.90437 70.4175 7.12889 70.0983 7.82058C67.4922 7.33794 68.0372 9.41233 67.7868 10.809H69.6907L63.4605 13.5885ZM65.2494 11.03C63.4079 10.2759 62.3199 12.0143 62.3199 12.5348C62.7618 12.3187 63.4963 11.5204 63.7678 11.3422C64.268 11.0125 65.0467 11.2145 65.2494 11.03ZM66.9983 10.1096C67.2929 11.9869 63.9691 11.8775 63.2543 13.1472C63.2241 10.5797 66.6111 11.9146 66.9983 10.1096ZM63.3062 14.1967C64.0996 13.1472 64.6924 14.0304 65.3427 13.5885C65.9916 13.1472 66.7401 11.7863 68.2793 12.4709L69.1036 11.7505L68.5529 12.6449C70.1537 13.6993 71.0804 13.6025 70.9226 11.6172C72.9928 12.8245 71.8521 15.6053 70.2884 15.5906C69.361 15.5822 69.0467 15.1122 68.5129 14.9066C68.1334 14.7607 67.8345 15.0518 67.4809 15.4236L68.9689 16.0066L67.1695 15.7456C66.623 16.2823 65.8057 16.7607 64.6608 16.2444L64.8867 16.6709H71.2109L66.8818 18.6036C68.0386 18.8442 69.4606 17.4216 71.1008 18.4065C72.6736 19.3556 71.9629 21.5142 71.3035 21.5065C70.7142 21.5002 71.8423 19.5696 70.2323 19.6068C69.643 19.6222 69.1702 20.1091 68.595 20.5616L69.126 21.8769L68.2533 20.8169C67.7889 21.1515 67.2915 21.4034 66.7219 21.3311L69.7167 23.0996H67.676C67.6528 23.6033 67.6991 23.9506 67.9018 24.3862L68.1074 24.2992C68.2638 24.6283 69.1863 25.1796 70.4792 24.9622C69.9959 26.8254 67.3056 26.3014 66.7906 25.7759L66.8215 26.4452C65.6423 23.536 64.7366 23.3613 62.9849 23.3613L67.0628 27.494L66.0884 27.2912C66.3817 28.4487 64.9955 30.474 64.0021 30.5848C63.6177 30.6311 64.7057 29.8223 64.7057 28.6655C64.7057 27.5101 63.4156 27.1558 62.8685 26.7019C61.8688 25.8706 61.4647 23.5577 61.0803 22.9039C61.7818 23.2736 62.3718 25.261 62.9842 25.9583C63.5938 26.6578 65.1351 27.3565 65.1351 28.4487C65.1351 29.5389 64.7289 29.7353 64.6826 29.8658C65.0888 29.8658 66.3606 27.6322 65.1582 26.5637C64.5598 26.0313 63.7769 25.8805 63.1631 25.3705C62.3563 24.6998 61.9249 23.2624 61.4717 22.838C61.034 22.4332 59.579 21.7605 59.8547 19.5338C58.9694 21.9267 60.2034 22.2852 60.4728 23.9141C60.7457 25.5444 61.6212 27.2912 62.5584 27.5241C62.3956 27.5683 62.2371 27.5887 62.0947 27.588L61.8933 29.1236L61.8274 27.562C59.8358 27.1783 59.8786 22.5083 58.6902 21.9057L61.5903 30.2593L59.5229 28.9398C59.1862 30.3007 60.6811 30.3702 60.5394 31.6042C60.3739 33.0086 58.7534 32.8802 58.7828 32.5589C58.8011 32.3555 59.4212 32.573 59.4212 32.2334C59.4212 31.9135 58.4215 31.715 57.9943 31.2218C57.7348 30.9153 57.5124 30.6669 57.4191 29.5024L56.787 30.3407C56.787 30.3407 57.5573 28.3379 57.6625 27.8146C57.7656 27.301 56.3394 26.5125 56.1423 25.4855V31.3067L54.4537 29.2253C54.1661 31.5087 50.949 31.3579 50.7462 31.1215C53.0823 29.386 51.9542 28.608 51.3706 27.1313L50.1387 27.8735L51.2099 26.6563C51.1384 26.3821 51.118 26.0362 51.1426 25.7079C51.2766 23.9057 53.8904 24.0663 52.4649 22.2845L48.2327 29.0941L48.6262 25.4273C46.1183 26.3301 46.9861 26.462 46.2684 28.105C45.6841 29.4456 44.4887 29.0822 44.1281 28.5112C43.5992 27.6813 44.2446 27.0569 44.9391 27.0857C45.3572 26.7447 44.1527 26.2046 44.6367 25.1137C45.3375 23.5269 47.3158 24.2137 48.3246 22.8906L45.8461 23.1572L48.6136 22.3862C48.8065 21.9302 48.9272 21.3178 48.93 20.4788L43.6679 23.3887L45.2709 20.7404C42.3336 23.1754 41.6237 20.1203 40.2249 20.3623C40.5889 18.732 41.9457 19.6629 42.5525 19.6629C43.1558 19.6629 44.0327 18.5868 44.335 18.3553L41.1901 16.6695H49.0331C49.6224 16.6695 49.9528 16.4675 49.6701 16.1273C49.2962 15.6832 47.8497 16.2107 46.2081 16.3314C45.2105 16.4051 44.6093 16.0185 44.1134 15.5639L42.7328 15.982L43.905 15.3619C43.0976 14.5622 42.4837 13.7393 40.5882 14.8905C39.9976 13.3619 41.4188 12.0542 42.6872 12.0234C44.5013 11.9792 44.8479 14.1062 46.2537 13.3619L43.8517 10.5677L47.75 12.4885L47.2527 11.0062L45.5725 10.5677L47.205 10.6996C46.7511 9.17171 45.0408 9.4474 44.3386 8.70029C42.8212 7.08118 44.4641 5.0096 45.71 5.59256C44.8479 7.42633 46.434 8.20992 47.7493 7.94826L47.1138 5.80863L52.1458 10.9185C50.9939 11.7926 49.7052 11.0188 49.0724 9.12751C48.4642 7.31479 46.4101 8.90583 45.4827 8.48702C45.4519 9.56315 47.2955 8.48702 47.5676 10.6694C47.7472 12.0963 48.7925 13.3962 50.3351 13.0434C49.7431 13.9427 48.3021 12.8273 47.3909 14.1244C48.9735 13.9497 49.3488 15.7323 50.6487 16.0361C49.6792 15.4826 49.5768 14.1202 48.6003 13.9006C49.1994 13.7702 49.6792 14.0402 50.2643 13.8445C50.8725 13.6411 51.172 13.23 51.13 12.6302C51.7585 12.8834 51.8174 13.4818 51.5249 13.8726C51.2317 14.2633 50.6466 14.4822 50.6284 14.8147C50.6284 14.8147 50.6466 14.753 51.0549 14.5573C50.7497 14.9641 50.9476 15.5218 51.2815 15.8852C51.2632 15.6453 51.2667 15.2665 51.4056 15.1921C51.661 15.7842 52.2355 16.0943 52.6024 16.0052C51.9346 15.2903 52.3941 14.6835 52.3941 14.6835C52.1009 14.6709 51.7985 15.0974 51.7985 15.0974C51.7985 15.0974 51.6021 14.4261 52.3078 14.1406C52.2559 14.0381 52.2994 13.9189 52.2994 13.9189C52.8767 14.5061 53.8981 14.478 54.1858 14.6716C54.1858 14.6716 52.6866 14.4576 52.8732 15.2812C53.0374 16.0536 55.3671 15.693 54.9217 13.1718C54.9217 13.1718 55.3201 13.1297 55.4759 13.2763C55.6225 13.4194 55.4436 13.8543 55.4436 13.8543L55.7431 13.9904C55.7431 13.9904 55.5832 15.1767 55.6554 15.4019C55.6961 15.5338 56.2307 15.5464 56.3219 15.5492C56.4334 15.5541 56.3633 15.6755 56.3079 15.6755C56.2595 15.6755 55.471 15.6755 55.471 15.6755C55.3447 15.6797 54.9778 16.1181 55.3243 16.2009C55.3243 16.2009 55.7621 16.3104 56.2019 16.3104C56.6453 16.3104 57.0753 16.2009 57.0753 16.2009C57.0753 16.2009 57.0038 16.5503 56.1956 16.5503C55.3776 16.5503 55.0592 16.4128 55.0592 16.4128C54.8789 16.92 55.9424 17.4279 56.0595 17.4637C56.1605 17.498 56.3373 17.4861 56.3752 17.4622C56.411 17.4391 57.1448 16.847 57.1448 16.847L56.9224 17.2083C57.9185 16.9761 57.7684 16.4738 57.4275 16.3609C57.4106 16.1343 57.9992 16.175 57.9796 16.6085C57.9536 17.1599 56.5457 17.4679 56.3759 17.8397C56.2602 18.0782 56.5436 18.8484 56.7856 18.9214C57.0199 18.9895 57.5685 18.981 57.8484 18.8316C57.9291 18.7867 58.6797 17.3774 58.6797 17.028C58.6797 16.6815 57.908 14.9754 57.908 14.9754C58.0504 14.5369 58.7183 14.6513 59.3223 14.264C58.3359 15.2854 59.0024 15.4159 59.7172 15.4447C59.175 15.907 58.7983 16.2065 59.0108 16.9207C62.1803 17.618 60.9547 22.0803 63.2564 22.8667C61.4318 23.1424 61.2213 20.6984 61.055 19.6341C60.9863 20.7685 60.9063 21.724 61.7734 22.6352C62.5212 23.4188 63.6605 22.9755 64.7198 22.9825C66.6005 22.9986 66.0632 25.0281 67.6353 25.5739C66.7577 24.8345 67.3161 23.9485 66.0204 22.6808C65.361 22.0354 63.9207 22.6914 62.8383 21.4574C61.7516 20.2227 61.4142 17.7113 59.8933 16.7376C61.6324 17.1781 62.282 20.048 63.1694 21.007C64.0512 21.9625 65.9804 21.6657 66.6188 22.3406C67.7784 23.3522 66.5921 25.3782 68.9969 25.7472V25.6034C69.4501 25.6911 70.1755 25.5171 70.1151 25.1376C69.7511 25.2554 68.905 25.2835 68.3628 24.8471L68.5437 25.2252C67.0895 24.8352 67.6591 22.5763 66.7956 21.8166C66.0562 21.167 64.7163 21.5226 63.5924 20.657C62.4777 19.8025 62.0259 17.5422 59.9684 16.1483C62.7632 15.3563 63.685 20.5468 66.3606 20.5468C67.6977 20.5468 68.6658 18.5784 69.8675 18.5784C70.7213 18.5784 71.3772 19.0456 71.5203 19.8123C71.6725 20.6128 71.3723 21.2455 71.3723 21.2455C71.3723 21.2455 71.7784 20.8099 71.7784 20.0312C71.7784 18.7439 70.7591 18.2332 69.777 18.2332C68.8026 18.2332 68.4701 18.8884 66.9709 18.8884C65.0439 18.8449 64.5304 15.3661 62.3416 15.1627C63.4823 14.2065 64.5767 15.9371 65.61 15.9189C66.3592 15.9063 66.698 15.3289 67.107 14.0851C67.5146 12.8413 68.4694 13.5611 69.1022 14.1511C69.7328 14.7397 70.6707 14.7817 71.2158 14.3026C71.0727 14.7558 70.5669 14.7488 70.7633 15.0462C70.8503 15.1795 70.9829 15.1171 71.1211 14.9887C71.8402 14.3258 72.0106 12.5776 71.2383 12.1651C71.8282 14.9361 69.3877 14.109 69.4536 13.7372C69.9075 13.8901 70.541 13.8677 70.3593 13.6067C68.6139 13.5829 68.5543 12.4268 67.4003 12.5362L67.7426 12.7558C65.7005 12.7558 66.9948 15.5422 65.5419 15.5422C64.7562 15.5422 64.2413 14.6576 63.2522 14.5853C64.3915 13.5906 65.5349 16.1862 65.8555 14.1988C65.0831 14.9333 64.4848 13.8094 63.3062 14.1967ZM57.2458 9.8157C55.9354 10.4141 55.8708 8.5235 56.2272 8.12153C56.2272 8.12153 55.9901 9.11629 56.8635 9.47546C55.6968 7.54278 57.9943 6.80969 57.9943 5.26635C57.9943 3.98258 57.2044 3.56237 57.2276 2.38452C57.25 0.966047 59.3356 0.594243 59.3581 1.14143C59.3707 1.53358 57.8393 1.57777 57.8168 3.03974C57.7909 4.41541 59.3258 4.74302 59.2879 6.0738C59.2641 6.94789 57.699 7.75464 58.6734 9.39128L60.8993 3.12602L59.1939 5.04678C58.6502 4.36841 58.2237 4.30387 58.2237 3.08463C58.2237 1.86048 59.5818 1.68651 59.5818 1.11758C59.5818 0.658782 58.9 0.593541 58.404 0.5746C57.6337 0.538121 56.27 1.20456 56.27 2.62444C56.27 4.04291 57.2367 4.76407 56.2756 6.09695L55.4597 4.85176L56.0721 6.4449C56.0721 6.4449 55.5144 7.09311 55.5144 8.25061C55.5144 10.5207 57.3707 10.7305 57.2458 9.8157ZM57.4647 4.54309C58.0729 6.46385 56.0729 6.97736 55.9052 8.2457C55.7859 6.71218 57.7025 5.98331 57.4647 4.54309ZM58.404 9.6319C57.8056 9.04263 58.068 7.98333 58.068 7.98333C58.068 7.98333 57.1223 9.1703 58.404 9.6319ZM60.9196 13.6656C61.0543 13.9596 61.6029 13.3008 62.4279 13.5541C62.033 13.2826 60.8509 13.284 60.9196 13.6656ZM60.0084 8.46668C59.7046 9.28886 58.8614 9.52106 58.4531 10.231C58.6748 10.2436 59.8996 9.96302 60.3528 9.19836C60.7913 8.45756 60.3598 6.3025 61.7622 5.77425C63.2241 5.22286 64.7583 4.4084 63.0263 2.64408C65.6815 3.31683 64.1901 6.14676 63.8737 6.55995C63.5763 6.95 62.5998 7.72307 62.5998 8.96897C62.5998 9.88866 61.772 10.9388 61.1294 11.0665C61.8064 11.3436 62.8243 9.78413 62.8243 9.78413L66.1326 5.50487L64.2287 6.4884C64.2287 6.4884 64.752 6.03943 64.752 4.5459C64.752 2.43292 62.4805 2.05551 62.5079 2.71213C62.5226 3.14987 63.2781 3.45784 63.2985 4.17549C63.3216 4.89104 62.3192 5.29933 61.5314 5.52802L61.1806 4.34947V5.67464C59.8947 6.33827 60.3283 7.60241 60.0084 8.46668ZM62.4475 7.35758C63.1449 6.33196 63.7903 6.50734 64.1228 5.41437C63.6514 6.28636 62.6012 6.46525 62.1185 7.1829C61.276 8.43511 62.2504 10.2485 60.484 10.7726C62.7106 10.8273 61.6415 8.25061 62.4475 7.35758ZM63.7685 10.177C64.496 9.99038 64.9429 10.6274 65.5076 10.459C65.8211 10.3664 65.8303 10.0079 65.5826 9.91461C65.5826 9.91461 66.5388 8.92197 66.2168 8.37268C65.4304 9.97284 63.9179 9.91461 63.7685 10.177ZM60.7162 12.9494C60.8411 13.1514 61.0165 12.7698 61.3476 12.5909C60.9182 12.5334 60.6538 12.842 60.7162 12.9494ZM66.5865 20.001C67.5385 19.9779 68.2926 19.0407 68.83 18.6969C68.0569 18.8765 67.6514 19.5633 66.5865 19.5864C64.8411 19.6222 63.9334 14.6962 60.9638 15.7C64.0246 15.94 63.9579 20.06 66.5865 20.001ZM60.2995 14.605C60.3633 14.9901 61.0452 14.1855 62.3451 14.7467C61.8997 14.0978 60.2062 14.036 60.2995 14.605ZM57.6478 9.62629C56.3408 7.47333 59.4156 6.97736 58.5394 5.19901C58.6516 6.59012 55.6982 8.02683 57.6478 9.62629ZM50.8164 12.3489C48.1843 12.3931 50.1177 9.51264 48.1597 9.08752C49.1678 9.768 48.6136 10.3797 48.6227 11.4846C48.6333 12.8112 50.2243 13.216 50.8164 12.3489ZM51.252 11.4972C50.7217 11.4832 49.8693 11.2293 49.5649 10.513C49.2878 11.1647 50.1422 12.9227 51.252 11.4972ZM62.2111 26.3968C61.5005 25.1621 60.9379 22.4311 60.0743 22.0375C60.8874 23.2512 60.8832 25.2933 61.8337 26.603C62.5872 27.6336 63.7594 27.4049 64.3886 28.4045C64.2547 27.3291 62.8678 27.5361 62.2111 26.3968ZM57.8252 17.3584C57.6597 17.4742 57.2767 17.5843 56.9722 17.7885C56.9441 17.839 56.8859 18.0277 56.82 18.0705C57.1293 18.1357 57.7965 17.6874 57.8252 17.3584ZM65.8408 16.1841C66.5255 16.2676 68.7563 14.0929 68.0358 13.7828C67.3147 13.4713 67.2705 15.7632 65.8408 16.1841ZM46.7251 8.20852C45.0709 7.81918 44.9882 6.50734 45.4014 5.78828C44.0243 5.67885 43.9534 8.82656 46.7251 8.20852ZM40.7496 14.4808C40.7496 14.4808 41.8811 13.6474 43.1579 14.3503C43.4925 13.1114 41.1326 13.216 40.7496 14.4808ZM46.8528 14.095C45.3894 14.3433 44.7882 13.6306 44.4003 13.1605C44.1646 12.8785 43.9457 12.5993 43.4904 12.5229C43.4631 12.5187 43.4708 12.5572 43.4743 12.6056C43.4799 12.6688 43.4883 12.7642 43.4483 12.7845C43.4196 12.7993 43.3522 12.7859 43.1944 12.6435C43.0309 12.4962 42.7798 12.426 42.4894 12.4457C42.2368 12.4611 41.9836 12.546 41.8082 12.6702C41.6398 12.7922 41.5781 12.9318 41.6342 13.0623C41.7219 13.2637 42.0025 13.2517 42.3294 13.2377C42.5911 13.2244 42.8892 13.2139 43.1537 13.3022C43.3592 13.3724 43.5276 13.5927 43.7205 13.8473C44.3877 15.0055 46.4838 15.3928 46.8528 14.095ZM47.6995 15.4461C47.6757 14.6302 44.8198 15.0518 44.8984 15.6201C44.984 16.2486 47.7213 16.1567 47.6995 15.4461ZM47.9556 17.4258C48.8739 17.7513 50.7462 16.9017 50.4488 16.572C50.145 16.2374 49.4926 17.4482 47.9556 17.4258ZM44.8275 18.2732C46.3744 17.5359 47.3572 20.0852 48.702 18.6408C47.1467 19.1284 46.9447 17.6748 45.5627 17.8362C46.3477 17.0785 47.2955 18.2143 48.3239 18.2143C49.3502 18.2143 50.1696 17.9505 50.2643 17.1866C49.997 17.4538 49.3705 17.8032 48.3162 17.8032C47.2576 17.8039 45.6083 16.4051 44.8275 18.2732ZM42.14 20.4184C42.7707 20.8092 43.8587 20.3721 43.4175 19.6727C42.0839 20.584 41.4595 18.946 40.6563 20.1329C40.9909 20.0102 41.503 20.0242 42.14 20.4184ZM45.8033 19.6538C44.4129 19 44.0544 21.2182 42.4872 20.9144C42.4711 21.8979 43.9724 21.4349 44.5616 20.979C45.1397 20.5272 45.4526 19.719 45.8033 19.6538ZM49.8006 18.2641C49.2169 19.0007 48.2979 19.6489 47.2744 19.2953C46.2523 18.9418 45.2042 17.8958 44.5616 19.4251C45.9219 18.2002 48.2116 21.8348 49.8006 18.2641ZM49.2281 23.5297C49.0086 23.3045 48.6389 23.8075 48.152 24.0944C47.6027 24.4199 46.9545 24.6051 47.1313 24.8591C47.2912 25.092 47.9535 25.0274 48.4887 24.7174C49.0457 24.3939 49.4709 23.7759 49.2281 23.5297ZM45.085 25.2968C45.4231 25.7752 46.34 24.577 47.5705 24.1547C48.8395 23.7191 49.1341 22.3918 49.1082 21.8306C48.676 22.845 48.2951 23.6293 47.3088 23.851C46.321 24.0727 44.7342 24.8043 45.085 25.2968ZM45.4806 27.0099C45.3473 27.8307 44.9285 27.9065 44.8647 27.8728C44.803 27.8377 44.7735 27.7465 44.8219 27.6869C44.8794 27.6188 44.8878 27.5241 44.8086 27.4575C44.73 27.3922 44.1449 27.5655 44.2502 28.1464C44.3035 28.4305 44.5883 28.723 45.0324 28.6662C45.4764 28.6143 45.9633 27.9514 45.4806 27.0099ZM52.0153 18.1357C51.1468 19.0708 52.0033 22.5525 50.2327 23.818C51.5312 21.6419 50.6627 18.9852 51.8209 17.5745C50.3653 18.6815 50.7876 21.7345 50.293 22.5426C49.8083 18.8078 51.3713 17.4405 51.7087 17.1332C48.7707 19.3044 50.4972 22.2445 49.6715 23.7556C48.3975 26.0783 46.3828 24.7994 45.5185 25.5879C44.7525 26.2873 46.5476 27.1039 45.7086 28.3737C46.2186 28.5252 46.286 26.469 46.742 26.1681L46.2776 26.2873C46.1555 25.8461 45.7128 25.8279 45.7128 25.8279C46.1625 25.0667 48.112 26.3049 50.58 24.1968C52.7617 22.3329 51.3944 19.2546 52.0153 18.1357ZM54.9336 19.1536C54.8143 19.1536 54.7926 19.1922 54.7898 19.2139C54.7828 19.2574 54.8473 19.3065 54.9294 19.3283C54.9378 19.3297 55.7298 19.5177 56.1984 19.4924C56.6642 19.517 57.4478 19.3297 57.4562 19.3283C57.5467 19.3065 57.6029 19.2567 57.598 19.2139C57.5944 19.1922 57.5734 19.1536 57.4541 19.1536C57.431 19.1536 56.6242 19.1775 56.1984 19.1775C55.7691 19.1782 54.956 19.1536 54.9336 19.1536ZM54.406 16.6092C54.4306 17.1606 55.2338 17.3079 55.5579 17.2637C54.5569 17.0357 54.6158 16.4752 54.9581 16.3623C54.9736 16.1357 54.3857 16.1764 54.406 16.6092ZM53.9781 17.3156C54.0062 17.531 54.9427 17.8888 54.9427 17.8888C54.9427 17.8888 54.7105 18.0677 54.2279 17.8951C54.4748 18.3237 55.0907 18.316 55.0907 18.316C55.0907 18.316 55.0444 18.5713 54.371 18.3925C54.5372 18.8709 55.2528 18.9902 55.4871 18.9221C55.7298 18.8491 56.0062 18.0789 55.8968 17.8404C55.8968 17.8404 54.916 17.3711 53.9781 17.3156ZM53.1342 29.1187C53.1342 27.8637 52.2685 27.5325 52.2685 26.0138C52.2685 24.3568 54.3092 24.3841 54.3092 23.0723C54.3092 21.7605 52.5491 21.2098 52.5491 18.6871C52.0959 21.651 53.8006 21.959 53.8006 23.1235C53.8006 24.2866 51.8399 23.9688 51.8399 26.0138C51.8399 27.2155 52.6754 27.8496 52.6754 29.132C52.6754 30.4158 51.8476 30.7595 51.8476 30.7595C52.1619 30.8009 53.1342 30.5154 53.1342 29.1187ZM54.5281 20.2817C55.238 21.5044 55.6351 22.2129 55.3405 23.2259C55.0444 24.2368 53.9879 24.7475 53.6926 25.9443C53.4779 26.8107 53.9115 27.8559 53.7361 28.582C53.7536 27.924 52.9406 26.998 53.1812 25.8756C53.4225 24.7531 55.1532 24.1491 55.1532 22.9355C55.1532 21.7212 53.8624 20.6156 53.5032 19.632C53.3909 20.8106 54.6116 21.6244 54.6116 22.9495C54.6116 24.2754 52.7231 24.5918 52.7231 26.0425C52.7231 27.2014 53.3987 28.0117 53.3987 29.1334C53.3987 29.9275 52.8199 30.7188 52.8199 30.7188C55.0613 29.5045 53.7873 27.9436 54.1942 26.0187C54.4481 24.8296 55.4057 24.4445 55.7922 23.4715C56.1255 22.6226 55.8378 21.181 54.5281 20.2817ZM56.3808 21.8902C56.4341 21.0617 55.8266 20.1701 55.6007 20.3855C55.3762 20.6022 56.2791 21.1726 56.3808 21.8902ZM57.1321 26.159C56.0174 23.7212 58.1837 22.6275 56.5667 20.7538C57.6737 22.9488 55.5074 23.978 57.1321 26.159ZM58.3289 30.6655C58.6102 32.1071 60.2034 31.0436 59.7923 32.1703C60.7099 30.9125 58.7751 31.4989 58.3289 30.6655ZM58.4236 24.965C57.9501 24.0397 59.156 21.08 57.9501 20.0915C58.8986 22.0446 56.9911 24.0446 58.143 25.7752C56.5464 24.5967 58.8439 21.7612 57.2626 20.4241C58.1578 22.0179 56.8831 23.4532 57.1209 24.939C57.3903 26.6297 58.491 26.5455 58.5646 27.7809C58.6376 29.0191 57.8652 29.5249 58.4075 30.3512C58.9421 31.1629 60.5836 30.8549 60.2448 31.8946C60.7948 30.8732 59.4815 30.7413 59.2627 29.6111C59.0522 28.5189 60.0933 27.7444 59.894 26.9531C59.692 26.1604 58.888 25.8903 58.4236 24.965ZM60.9154 21.9134C60.2897 20.8408 61.2178 19.35 60.0582 18.3574C60.7008 19.9204 59.6688 20.5153 60.9154 21.9134ZM65.0747 23.3894C64.8257 23.6174 65.6738 23.6665 65.758 24.0734C65.9636 23.7359 65.3238 23.1628 65.0747 23.3894ZM71.0734 19.4511C70.4189 18.2739 68.8342 18.8534 68.3298 20.1989C68.2919 20.3013 68.3186 20.3771 68.4154 20.2536C69.0692 19.3998 70.1236 18.6226 70.9408 19.4419C71.0545 19.5542 71.1071 19.5093 71.0734 19.4511ZM58.0652 17.7983C58.0329 17.8761 57.8217 17.961 57.3721 18.1336C57.3124 18.2353 57.1735 18.396 57.0395 18.483C57.5706 18.6275 58.1613 18.0901 58.0652 17.7983ZM59.0718 27.9499C59.0718 27.9499 60.3388 27.1972 58.9638 26.4473C59.3679 27.2112 59.0718 27.9499 59.0718 27.9499ZM57.2696 12.7537C58.0147 12.7537 58.1318 12.4036 58.6965 12.4036C59.2634 12.4036 59.4675 12.7761 59.9228 12.7761C60.3711 12.7761 60.6439 12.4478 60.4405 12.1637C60.1466 12.6449 59.6281 11.989 59.2374 11.989C58.6481 11.989 58.3984 12.2338 58.014 12.426C57.5867 12.6449 57.1742 12.4352 57.3356 12.1861C57.0066 12.1805 56.7905 11.7715 57.358 11.2903C56.364 11.4004 56.519 12.7537 57.2696 12.7537ZM53.8098 9.70205C53.7249 9.70205 53.6449 9.6761 53.5754 9.6305C53.184 9.38356 52.9749 8.7045 52.5772 8.77535C52.8122 8.95564 52.7028 9.59472 53.0318 9.95179C53.1882 10.1265 53.4169 10.2366 53.6709 10.2366C54.1374 10.2366 54.5197 9.85569 54.5197 9.38567C54.5197 9.11138 54.3906 8.86725 54.1886 8.71221C53.8862 8.48001 53.4625 8.32287 52.2201 7.89985C49.2534 6.89247 53.6919 3.88717 51.6505 2.20212C52.7708 4.62446 49.4898 6.06117 51.1924 7.76095C51.9381 8.52912 53.546 8.41056 54.1037 8.96055C54.1844 9.03912 54.2377 9.15066 54.2377 9.27132C54.2391 9.50914 54.0483 9.70205 53.8098 9.70205ZM54.1275 12.1258C53.5663 12.1188 52.9153 12.7473 52.8059 12.3426C52.7098 12.0269 53.2843 11.5007 54.0413 11.4467C53.4043 11.2706 52.3513 11.8578 52.1633 12.506C51.962 12.5271 51.6112 12.2654 51.6112 12.2654C51.7838 13.7449 53.1616 12.445 53.6891 12.445C54.1535 12.445 55.6295 13.5127 55.6569 12.1833C55.1476 12.7873 54.7779 12.1258 54.1275 12.1258ZM49.6897 6.3965C49.762 5.41508 50.3892 4.54589 50.3793 3.54272C50.3695 2.07164 48.6859 3.46415 48.4298 2.84261C47.7549 1.20176 52.7392 0.370458 52.6761 3.28106C52.6445 4.81598 52.2257 6.51015 53.419 6.68623L54.3247 2.97239L55.2759 8.29972C54.4096 7.20184 52.7897 7.62556 52.3997 5.87106C52.1191 4.59711 53.6126 1.42624 50.1092 1.66476C54.1661 2.90364 47.8454 6.35581 51.6042 8.56139C52.6088 9.15768 52.9581 10.2071 52.5126 10.6589C52.4495 9.16469 50.9644 8.97809 50.4242 8.34321C49.9381 7.77358 49.7409 7.26428 49.6904 6.78514L48.293 6.11589L49.6897 6.3965ZM50.4228 2.76895C50.1156 1.7314 48.427 2.193 48.7686 2.6076C48.9286 2.80262 49.5915 2.22457 50.4228 2.76895ZM51.755 5.6571C50.1022 8.78447 55.8266 7.36249 55.0802 10.0233C56.2791 7.14642 51.13 8.74799 51.755 5.6571ZM54.5653 14.4738C54.0869 14.2121 52.9048 14.1525 52.3948 13.4208C52.9357 13.1711 53.492 12.6968 53.9634 12.7922C55.0255 13.0048 54.6691 14.3103 54.5653 14.4738ZM53.7796 12.9824C53.1377 12.8484 52.9329 13.7807 53.4183 13.9659C53.4471 13.6263 53.7417 13.0574 53.7796 12.9824ZM54.183 13.2132C54.1486 13.2973 54.002 13.8473 53.7866 14.0753C54.183 14.2297 54.6488 13.5709 54.183 13.2132ZM58.437 12.7922C58.9007 12.6968 59.4584 13.1711 59.9985 13.4208C59.4906 14.1525 58.3079 14.2121 57.8365 14.4738C57.7242 14.3103 57.3679 13.0048 58.437 12.7922ZM58.9799 13.9666C59.4626 13.7807 59.2577 12.8484 58.6145 12.9831C58.6516 13.0574 58.9463 13.6263 58.9799 13.9666ZM58.6074 14.0753C58.397 13.8473 58.2469 13.2973 58.2104 13.2132C57.7446 13.5709 58.2097 14.2297 58.6074 14.0753ZM64.1649 4.58728C63.6107 5.80231 62.0238 5.76794 61.4212 6.66167C60.3647 8.22676 61.7622 9.83324 59.5503 10.3853C62.1726 10.4141 60.8158 8.17836 61.772 6.89107C62.7282 5.60098 63.8148 6.07801 64.1649 4.58728Z" fill="#AD9961"/>
<path d="M3.99984 40.818H0.327393V47.0966H1.15939V44.4519H3.99984C5.61474 44.4519 6.43692 43.8394 6.43692 42.6293C6.43692 41.429 5.61474 40.818 3.99984 40.818ZM3.80552 43.7075H1.15939V41.5616H3.80552C5.12718 41.5616 5.64139 41.864 5.64139 42.6398C5.64139 43.4101 5.12718 43.7075 3.80552 43.7075Z" fill="#532409"/>
<path d="M14.0742 40.818V44.508C14.0742 45.8367 13.2457 46.5403 11.6771 46.5403C10.1078 46.5403 9.27719 45.836 9.27719 44.508V40.818H8.448V44.508C8.448 46.7732 10.2025 47.2481 11.6771 47.2481C13.1496 47.2481 14.9048 46.7725 14.9048 44.508V40.818H14.0742Z" fill="#532409"/>
<path d="M22.6484 43.7803C23.03 43.5944 23.5449 43.2991 23.5449 42.4769C23.5449 40.8185 21.8283 40.8185 21.098 40.8185H17.4705V47.0971H20.6806C21.7546 47.0971 23.7533 47.0971 23.7533 45.3173C23.7533 44.3205 23.0524 43.9585 22.6484 43.7803ZM18.299 41.527H20.6385C21.7069 41.527 22.7143 41.527 22.7143 42.4874C22.7143 43.1426 22.118 43.4611 20.8939 43.4611H18.299V41.527ZM21.1661 46.3535H18.299V44.1703H21.2544C22.3664 44.1703 22.9093 44.5372 22.9093 45.2914C22.9093 46.2272 22.0289 46.3535 21.1661 46.3535Z" fill="#532409"/>
<path d="M26.3115 40.818V47.0966H31.8388V46.3537H27.14V40.818H26.3115Z" fill="#532409"/>
<path d="M34.5608 40.8185H33.7295V47.0964H34.5608V40.8185Z" fill="#532409"/>
<path d="M36.7451 43.9689C36.7451 45.9907 38.1145 47.2478 40.3215 47.2478C42.0044 47.2478 43.0861 46.6129 43.6986 45.3923L42.9683 45.0345C42.4695 45.9577 41.6543 46.5063 40.3888 46.5063C38.6617 46.5063 37.5897 45.5698 37.5897 44.065C37.5897 42.3288 38.5614 41.3733 40.3215 41.3733C41.7175 41.3733 42.5249 41.9563 42.8827 42.8275L43.6046 42.4971C43.2587 41.6539 42.238 40.6641 40.313 40.6641C38.0752 40.6641 36.7451 41.9015 36.7451 43.9689Z" fill="#532409"/>
<path d="M46.7622 40.8185H45.9358V47.0964H46.7622V40.8185Z" fill="#532409"/>
<path d="M49.311 42.5631C49.311 43.9479 50.9189 44.1029 52.3366 44.2397C53.5629 44.3576 54.7176 44.4691 54.7176 45.3081C54.7176 46.4474 52.8705 46.5063 52.4959 46.5063C50.3948 46.5063 49.8939 45.4547 49.687 45.2267L49.0437 45.7732C49.4906 46.2334 50.1746 47.2478 52.4124 47.2478C54.7337 47.2478 55.5594 46.246 55.5594 45.3081C55.5594 43.7472 53.8975 43.5943 52.4285 43.4603C51.2058 43.3495 50.1563 43.2534 50.1563 42.4431C50.1563 41.5129 51.4625 41.3733 52.2377 41.3733C53.9585 41.3733 54.5401 42.2081 54.7744 42.4719L55.384 41.9815C55.2079 41.7598 54.4054 40.6641 52.2546 40.6641C50.3576 40.6641 49.311 41.3396 49.311 42.5631Z" fill="#532409"/>
<path d="M62.207 43.9648C62.207 45.9873 63.5715 47.2444 65.7792 47.2444C67.1696 47.2444 67.9279 46.7274 68.3159 46.3001V47.0943H69.0595V44.002H65.7834V44.7463H68.2906C68.1678 45.9543 66.9261 46.5008 65.8135 46.5008C64.1074 46.5008 63.0467 45.5657 63.0467 44.0595C63.0467 42.3239 64.0057 41.3699 65.742 41.3699C66.3453 41.3699 67.749 41.5305 68.2773 42.7919L68.976 42.4229C68.5586 41.4351 67.3877 40.6606 65.7714 40.6606C63.5364 40.6606 62.207 41.8946 62.207 43.9648Z" fill="#532409"/>
<path d="M76.0814 44.3256C76.9828 44.261 78.0021 43.7791 78.0021 42.5872C78.0021 41.4136 77.1687 40.818 75.5257 40.818H71.9038V47.0945H72.7323V44.3494H75.1133L77.1084 47.0945H78.1333L76.0814 44.3256ZM72.7316 43.6065V41.5616H75.3525C76.4665 41.5616 77.208 41.7349 77.208 42.5809C77.208 43.4326 76.4665 43.6065 75.3525 43.6065H72.7316Z" fill="#532409"/>
<path d="M83.6066 40.6641C81.3751 40.6641 79.9363 41.971 79.9363 43.9949C79.9363 46.2299 81.8367 47.2492 83.6066 47.2492C85.3737 47.2492 87.2784 46.2299 87.2784 43.9949C87.2791 41.9717 85.836 40.6641 83.6066 40.6641ZM83.6066 46.5049C82.2408 46.5049 80.7816 45.8097 80.7816 43.8574C80.7816 42.394 81.9412 41.3733 83.6066 41.3733C85.2692 41.3733 86.4323 42.394 86.4323 43.8574C86.433 45.809 84.9746 46.5049 83.6066 46.5049Z" fill="#532409"/>
<path d="M94.9832 40.818V44.5066C94.9832 45.8367 94.1519 46.5389 92.5805 46.5389C91.0105 46.5389 90.1834 45.8367 90.1834 44.5066V40.818H89.3535V44.5066C89.3535 46.7718 91.1115 47.2495 92.5805 47.2495C94.0537 47.2495 95.8082 46.7711 95.8082 44.5066V40.818H94.9832Z" fill="#532409"/>
<path d="M101.869 40.818H98.1975V47.0945H99.0253V44.4505H101.87C103.483 44.4505 104.299 43.838 104.299 42.6293C104.298 41.4283 103.481 40.818 101.869 40.818ZM101.669 43.7089H99.0239V41.5609H101.669C102.992 41.5609 103.504 41.8626 103.504 42.6391C103.505 43.4087 102.992 43.7089 101.669 43.7089Z" fill="#532409"/>
<path d="M106.214 40.818V47.0966H111.955V46.3537H107.044V44.186H111.063V43.4529H107.044V41.5616H111.852V40.818H106.214Z" fill="#532409"/>
</g>
<defs>
<clipPath id="clip0_2592_17002">
<rect width="112.243" height="47.7032" fill="white" transform="translate(0.31958)"/>
</clipPath>
</defs>
</svg>
