<svg width="347" height="136" viewBox="0 0 347 136" fill="none" xmlns="http://www.w3.org/2000/svg">
<path d="M19.383 19.76H41.535V31.83H19.383V19.76ZM20.519 38.362H45.369V51H4.047V1.3H44.446V13.938H20.519V38.362ZM46.8578 51L69.0098 20.044L68.9388 31.759L47.4968 1.3H66.3118L78.8078 19.76L70.7848 19.831L82.9968 1.3H101.031L79.5888 31.12V19.476L102.096 51H82.9258L70.4298 31.688L78.1688 31.617L65.9568 51H46.8578ZM104.099 51V1.3H128.026C132.664 1.3 136.664 2.05733 140.025 3.572C143.433 5.08666 146.06 7.264 147.906 10.104C149.752 12.8967 150.675 16.21 150.675 20.044C150.675 23.878 149.752 27.1913 147.906 29.984C146.06 32.7767 143.433 34.954 140.025 36.516C136.664 38.0307 132.664 38.788 128.026 38.788H113.4L120.855 31.617V51H104.099ZM120.855 33.463L113.4 25.866H126.961C129.28 25.866 130.984 25.3453 132.073 24.304C133.209 23.2627 133.777 21.8427 133.777 20.044C133.777 18.2453 133.209 16.8253 132.073 15.784C130.984 14.7427 129.28 14.222 126.961 14.222H113.4L120.855 6.625V33.463ZM156.17 51V1.3H180.097C184.736 1.3 188.735 2.05733 192.096 3.572C195.504 5.08666 198.131 7.264 199.977 10.104C201.823 12.8967 202.746 16.21 202.746 20.044C202.746 23.878 201.823 27.1913 199.977 29.984C198.131 32.7293 195.504 34.8357 192.096 36.303C188.735 37.7703 184.736 38.504 180.097 38.504H165.471L172.926 31.617V51H156.17ZM185.919 51L173.707 32.895H191.457L203.811 51H185.919ZM172.926 33.463L165.471 25.866H179.032C181.351 25.866 183.055 25.3453 184.144 24.304C185.28 23.2627 185.848 21.8427 185.848 20.044C185.848 18.2453 185.28 16.8253 184.144 15.784C183.055 14.7427 181.351 14.222 179.032 14.222H165.471L172.926 6.625V33.463ZM224.409 19.76H246.561V31.83H224.409V19.76ZM225.545 38.362H250.395V51H209.073V1.3H249.472V13.938H225.545V38.362ZM275.377 52.136C271.211 52.136 267.188 51.6627 263.307 50.716C259.425 49.7693 256.23 48.5387 253.722 47.024L259.118 34.812C261.484 36.1847 264.111 37.297 266.999 38.149C269.933 38.9537 272.773 39.356 275.519 39.356C277.128 39.356 278.382 39.2613 279.282 39.072C280.228 38.8353 280.915 38.5277 281.341 38.149C281.767 37.723 281.98 37.226 281.98 36.658C281.98 35.7587 281.483 35.0487 280.489 34.528C279.495 34.0073 278.169 33.5813 276.513 33.25C274.903 32.8713 273.128 32.4927 271.188 32.114C269.247 31.688 267.283 31.1437 265.295 30.481C263.354 29.8183 261.555 28.9427 259.899 27.854C258.289 26.7653 256.988 25.3453 255.994 23.594C255 21.7953 254.503 19.5707 254.503 16.92C254.503 13.8433 255.355 11.0507 257.059 8.542C258.81 5.986 261.39 3.95067 264.798 2.436C268.253 0.921332 272.537 0.163999 277.649 0.163999C281.009 0.163999 284.323 0.518998 287.589 1.229C290.855 1.939 293.789 3.02766 296.393 4.495L291.352 16.636C288.89 15.4053 286.5 14.4823 284.181 13.867C281.909 13.2517 279.684 12.944 277.507 12.944C275.897 12.944 274.619 13.086 273.673 13.37C272.726 13.654 272.04 14.0327 271.614 14.506C271.235 14.9793 271.046 15.5 271.046 16.068C271.046 16.92 271.543 17.6063 272.537 18.127C273.531 18.6003 274.832 19.0027 276.442 19.334C278.098 19.6653 279.897 20.0203 281.838 20.399C283.826 20.7777 285.79 21.2983 287.731 21.961C289.671 22.6237 291.446 23.4993 293.056 24.588C294.712 25.6767 296.038 27.0967 297.032 28.848C298.026 30.5993 298.523 32.7767 298.523 35.38C298.523 38.4093 297.647 41.202 295.896 43.758C294.192 46.2667 291.636 48.302 288.228 49.864C284.82 51.3787 280.536 52.136 275.377 52.136ZM322.04 52.136C317.875 52.136 313.851 51.6627 309.97 50.716C306.089 49.7693 302.894 48.5387 300.385 47.024L305.781 34.812C308.148 36.1847 310.775 37.297 313.662 38.149C316.597 38.9537 319.437 39.356 322.182 39.356C323.791 39.356 325.046 39.2613 325.945 39.072C326.892 38.8353 327.578 38.5277 328.004 38.149C328.43 37.723 328.643 37.226 328.643 36.658C328.643 35.7587 328.146 35.0487 327.152 34.528C326.158 34.0073 324.833 33.5813 323.176 33.25C321.567 32.8713 319.792 32.4927 317.851 32.114C315.91 31.688 313.946 31.1437 311.958 30.481C310.017 29.8183 308.219 28.9427 306.562 27.854C304.953 26.7653 303.651 25.3453 302.657 23.594C301.663 21.7953 301.166 19.5707 301.166 16.92C301.166 13.8433 302.018 11.0507 303.722 8.542C305.473 5.986 308.053 3.95067 311.461 2.436C314.916 0.921332 319.2 0.163999 324.312 0.163999C327.673 0.163999 330.986 0.518998 334.252 1.229C337.518 1.939 340.453 3.02766 343.056 4.495L338.015 16.636C335.554 15.4053 333.163 14.4823 330.844 13.867C328.572 13.2517 326.347 12.944 324.17 12.944C322.561 12.944 321.283 13.086 320.336 13.37C319.389 13.654 318.703 14.0327 318.277 14.506C317.898 14.9793 317.709 15.5 317.709 16.068C317.709 16.92 318.206 17.6063 319.2 18.127C320.194 18.6003 321.496 19.0027 323.105 19.334C324.762 19.6653 326.56 20.0203 328.501 20.399C330.489 20.7777 332.453 21.2983 334.394 21.961C336.335 22.6237 338.11 23.4993 339.719 24.588C341.376 25.6767 342.701 27.0967 343.695 28.848C344.689 30.5993 345.186 32.7767 345.186 35.38C345.186 38.4093 344.31 41.202 342.559 43.758C340.855 46.2667 338.299 48.302 334.891 49.864C331.483 51.3787 327.199 52.136 322.04 52.136Z" fill="#D7C7F7"/>
<path d="M101.847 108.155C98.9768 108.155 96.4918 107.525 94.3918 106.265C92.3618 105.005 91.3468 103.465 91.3468 101.645C91.3468 100.175 91.7668 99.055 92.6068 98.285C93.4468 97.515 94.4618 97.13 95.6518 97.13C96.6318 97.13 97.4368 97.445 98.0668 98.075C98.7668 98.705 99.4318 99.58 100.062 100.7C100.972 102.17 101.847 103.255 102.687 103.955C103.527 104.655 104.717 105.005 106.257 105.005C107.727 105.005 108.812 104.62 109.512 103.85C110.282 103.01 110.807 101.75 111.087 100.07C111.157 99.79 111.192 99.37 111.192 98.81C111.192 96.71 110.562 94.925 109.302 93.455C108.112 91.915 106.327 90.235 103.947 88.415C101.497 86.385 99.6768 84.635 98.4868 83.165C97.2968 81.695 96.7018 79.91 96.7018 77.81C96.7018 75.71 97.3668 73.715 98.6968 71.825C100.097 69.935 101.952 68.395 104.262 67.205C106.642 66.015 109.197 65.42 111.927 65.42C115.007 65.42 117.457 65.98 119.277 67.1C121.097 68.22 121.902 69.655 121.692 71.405C121.482 72.595 120.957 73.54 120.117 74.24C119.277 74.87 118.367 75.185 117.387 75.185C116.127 75.185 115.182 74.905 114.552 74.345C113.922 73.785 113.292 72.91 112.662 71.72C112.032 70.53 111.367 69.655 110.667 69.095C110.037 68.465 109.057 68.15 107.727 68.15C106.467 68.15 105.452 68.5 104.682 69.2C103.912 69.83 103.457 70.67 103.317 71.72C103.247 72 103.212 72.42 103.212 72.98C103.212 74.8 103.807 76.445 104.997 77.915C106.187 79.385 107.937 81.065 110.247 82.955C112.767 85.125 114.657 87.015 115.917 88.625C117.177 90.165 117.807 92.02 117.807 94.19C117.807 96.15 117.107 98.25 115.707 100.49C114.307 102.66 112.382 104.48 109.932 105.95C107.552 107.42 104.857 108.155 101.847 108.155ZM167.844 98.915C167.984 98.775 168.124 98.705 168.264 98.705C168.474 98.705 168.649 98.845 168.789 99.125C168.929 99.335 168.894 99.545 168.684 99.755C166.304 102.555 164.204 104.62 162.384 105.95C160.564 107.28 158.674 107.945 156.714 107.945C155.174 107.945 154.019 107.49 153.249 106.58C152.549 105.67 152.199 104.305 152.199 102.485C152.199 101.365 152.374 99.755 152.724 97.655L155.769 80.96C156.119 79.28 156.294 77.6 156.294 75.92C156.294 72.28 155.069 70.46 152.619 70.46C150.589 70.46 148.454 71.755 146.214 74.345C144.044 76.935 141.979 80.75 140.019 85.79C138.059 90.76 136.449 96.675 135.189 103.535L134.769 105.95C134.419 107.21 132.739 107.84 129.729 107.84C127.629 107.84 126.579 107.595 126.579 107.105L126.999 104.795C127.699 101.505 128.084 99.65 128.154 99.23L138.339 44.105C138.549 42.915 138.654 41.935 138.654 41.165C138.654 40.115 138.479 39.345 138.129 38.855C137.779 38.365 137.219 38.12 136.449 38.12C135.469 38.12 133.929 38.61 131.829 39.59H131.619C131.409 39.59 131.234 39.415 131.094 39.065C131.024 38.715 131.129 38.505 131.409 38.435L146.739 30.875H146.949C147.229 30.875 147.474 30.98 147.684 31.19C147.964 31.4 148.069 31.575 147.999 31.715L138.444 85.16C140.894 78.79 143.729 73.855 146.949 70.355C150.239 66.855 153.704 65.105 157.344 65.105C162.034 65.105 164.379 67.94 164.379 73.61C164.379 74.94 164.204 76.725 163.854 78.965L160.389 97.655C160.179 98.705 160.074 99.58 160.074 100.28C160.074 102.1 160.669 103.01 161.859 103.01C163.119 103.01 165.114 101.645 167.844 98.915ZM187.9 108.47C183.42 108.47 179.955 107 177.505 104.06C175.125 101.12 173.935 97.305 173.935 92.615C173.935 90.655 174.145 88.695 174.565 86.735C175.335 82.605 176.805 78.895 178.975 75.605C181.215 72.315 183.945 69.76 187.165 67.94C190.385 66.05 193.78 65.105 197.35 65.105C201.9 65.105 205.4 66.54 207.85 69.41C210.3 72.28 211.525 76.06 211.525 80.75C211.525 82.64 211.315 84.635 210.895 86.735C210.055 91.215 208.41 95.1 205.96 98.39C203.58 101.68 200.78 104.2 197.56 105.95C194.41 107.63 191.19 108.47 187.9 108.47ZM191.47 105.845C193.92 105.845 196.09 104.55 197.98 101.96C199.87 99.37 201.235 95.835 202.075 91.355C202.565 88.975 202.81 86.455 202.81 83.795C202.81 79.175 202.005 75.325 200.395 72.245C198.855 69.165 196.72 67.625 193.99 67.625C191.61 67.625 189.44 68.885 187.48 71.405C185.59 73.925 184.225 77.53 183.385 82.22C182.895 85.16 182.65 87.645 182.65 89.675C182.65 94.365 183.42 98.25 184.96 101.33C186.57 104.34 188.74 105.845 191.47 105.845ZM243.894 65.735C247.394 65.735 250.054 66.68 251.874 68.57C253.764 70.46 254.709 73.19 254.709 76.76C254.709 77.95 254.604 79.175 254.394 80.435C253.694 85.125 252.049 89.535 249.459 93.665C246.939 97.725 243.859 100.98 240.219 103.43C236.649 105.88 232.974 107.105 229.194 107.105C227.794 107.105 226.184 107.035 224.364 106.895L221.004 125.69C220.794 126.95 220.689 127.965 220.689 128.735C220.689 129.855 220.934 130.66 221.424 131.15C221.984 131.64 222.859 131.885 224.049 131.885C224.329 131.885 225.099 131.815 226.359 131.675C226.639 131.605 226.814 131.745 226.884 132.095C226.954 132.515 226.849 132.76 226.569 132.83L207.249 135.875C207.039 135.945 206.899 135.77 206.829 135.35C206.689 134.93 206.759 134.685 207.039 134.615C208.509 134.335 209.594 133.95 210.294 133.46C210.994 133.04 211.519 132.34 211.869 131.36C212.219 130.38 212.604 128.735 213.024 126.425L221.949 76.235C219.499 77.915 217.784 79.105 216.804 79.805C216.734 79.875 216.629 79.91 216.489 79.91C216.279 79.91 216.104 79.77 215.964 79.49C215.824 79.21 215.859 79 216.069 78.86C217.469 77.67 219.569 76.025 222.369 73.925L223.734 66.47C223.734 66.33 224.434 65.805 225.834 64.895C227.234 63.915 228.494 62.935 229.614 61.955C230.734 60.905 231.434 59.75 231.714 58.49C231.784 58.21 231.994 58.105 232.344 58.175C232.764 58.245 232.939 58.42 232.869 58.7L231.084 68.885C235.634 66.785 239.904 65.735 243.894 65.735ZM246.099 83.9C246.239 82.5 246.309 81.45 246.309 80.75C246.309 73.89 243.404 70.46 237.594 70.46C235.214 70.46 232.869 70.915 230.559 71.825L225.099 102.485C227.409 103.535 229.964 104.06 232.764 104.06C236.474 104.06 239.414 102.24 241.584 98.6C243.824 94.96 245.329 90.06 246.099 83.9Z" fill="white"/>
</svg>
