<svg width="570" height="92" viewBox="0 0 570 92" fill="none" xmlns="http://www.w3.org/2000/svg">
<path d="M426.41 52.9458V61.9459H421.137V70.3132H411.363V61.9459H388.09V52.9458L404.473 21.0939H414.879L398.566 52.9458H411.363V41.2738H421.137V52.9458H426.41Z" fill="#E3416A"/>
<path d="M466.873 21.0939L449.998 51.1177V70.3132H440.365V51.1177L423.56 21.0939H434.529L445.216 41.6254L455.904 21.0939H466.873Z" fill="#E3416A"/>
<path d="M480.899 70.4186C470.563 70.4186 462.336 62.3326 462.336 51.856C462.336 41.3793 470.563 33.2933 480.899 33.2933C491.235 33.2933 499.532 41.3793 499.532 51.856C499.532 62.3326 491.235 70.4186 480.899 70.4186ZM480.899 61.5592C486.313 61.5592 490.462 57.5513 490.462 51.856C490.462 46.1606 486.313 42.1527 480.899 42.1527C475.555 42.1527 471.407 46.1606 471.407 51.856C471.407 57.5513 475.555 61.5592 480.899 61.5592Z" fill="#E3416A"/>
<path d="M529.116 34.2777H538.187V69.4342H529.116V65.4967C527.007 68.6608 523.351 70.4186 518.64 70.4186C511.187 70.4186 505.351 65.2155 505.351 55.8638V34.2777H514.421V54.7388C514.421 59.5201 517.304 61.9811 521.382 61.9811C525.812 61.9811 529.116 59.3795 529.116 53.2622V34.2777Z" fill="#E3416A"/>
<path fill-rule="evenodd" clip-rule="evenodd" d="M524.296 8.78915H405.643C385.256 8.78915 368.729 25.3163 368.729 45.7036C368.729 66.0908 385.256 82.618 405.643 82.618H524.296C544.684 82.618 561.211 66.0908 561.211 45.7036C561.211 25.3163 544.684 8.78915 524.296 8.78915ZM405.643 0C380.402 0 359.939 20.4622 359.939 45.7036C359.939 70.9449 380.402 91.4071 405.643 91.4071H524.296C549.538 91.4071 570 70.9449 570 45.7036C570 20.4622 549.538 0 524.296 0H405.643Z" fill="#E3416A"/>
<path d="M0 15.1044H11.5113V73.481H0V15.1044Z" fill="#222222"/>
<path d="M45.0091 30.6159C53.8512 30.6159 60.7747 36.7871 60.7747 47.8787V73.481H50.0141V49.213C50.0141 43.5422 46.594 40.6233 41.7559 40.6233C36.5008 40.6233 32.5802 43.709 32.5802 50.9643V73.481H21.8197V31.7834H32.5802V36.4536C35.0827 32.7008 39.4203 30.6159 45.0091 30.6159Z" fill="#222222"/>
<path d="M92.4015 24.2779C86.8126 23.8609 83.5594 25.6956 83.5594 31.3665V31.7834H92.4015V42.1244H83.5594V73.481H72.7989V42.1244H66.7929V31.7834H72.7989V31.3665C72.7989 19.8579 79.1384 13.1029 92.4015 13.9369V24.2779Z" fill="#222222"/>
<path d="M99.4972 73.481V12.6025H110.258V73.481H99.4972Z" fill="#222222"/>
<path d="M147.634 31.7834H158.394V73.481H147.634V68.8109C145.131 72.5637 140.794 74.6486 135.205 74.6486C126.363 74.6486 119.439 68.4773 119.439 57.3858V31.7834H130.2V56.0514C130.2 61.7223 133.62 64.6411 138.458 64.6411C143.713 64.6411 147.634 61.5555 147.634 54.3001V31.7834Z" fill="#222222"/>
<path d="M177.342 57.0522C178.844 62.5563 183.431 64.8913 189.104 64.8913C193.274 64.8913 196.611 63.14 198.446 60.7216L207.121 65.7253C203.201 71.3962 196.945 74.6486 188.937 74.6486C174.923 74.6486 166.081 65.0581 166.081 52.6322C166.081 40.2064 175.006 30.6159 188.103 30.6159C200.448 30.6159 209.207 40.3731 209.207 52.6322C209.207 54.2168 209.04 55.6345 208.79 57.0522H177.342ZM177.175 48.7127H198.446C197.111 42.7082 192.607 40.2897 188.103 40.2897C182.347 40.2897 178.426 43.3754 177.175 48.7127Z" fill="#222222"/>
<path d="M239.908 30.6159C248.75 30.6159 255.674 36.7871 255.674 47.8787V73.481H244.913V49.213C244.913 43.5422 241.493 40.6233 236.655 40.6233C231.4 40.6233 227.479 43.709 227.479 50.9643V73.481H216.719V31.7834H227.479V36.4536C229.982 32.7008 234.319 30.6159 239.908 30.6159Z" fill="#222222"/>
<path d="M284.715 74.6486C272.035 74.6486 262.693 65.0581 262.693 52.6322C262.693 40.2064 272.035 30.6159 284.715 30.6159C292.889 30.6159 299.98 34.9525 303.4 41.3739L294.141 46.7946C292.472 43.3754 288.885 41.2071 284.631 41.2071C278.208 41.2071 273.454 45.9606 273.454 52.6322C273.454 59.2205 278.208 63.974 284.631 63.974C288.969 63.974 292.556 61.8891 294.224 58.4699L303.567 63.8072C299.98 70.312 292.889 74.6486 284.715 74.6486Z" fill="#222222"/>
<path d="M317.698 57.0522C319.2 62.5563 323.788 64.8913 329.46 64.8913C333.631 64.8913 336.967 63.14 338.802 60.7216L347.478 65.7253C343.557 71.3962 337.301 74.6486 329.293 74.6486C315.279 74.6486 306.437 65.0581 306.437 52.6322C306.437 40.2064 315.363 30.6159 328.459 30.6159C340.804 30.6159 349.563 40.3731 349.563 52.6322C349.563 54.2168 349.396 55.6345 349.146 57.0522H317.698ZM317.531 48.7127H338.802C337.468 42.7082 332.963 40.2897 328.459 40.2897C322.703 40.2897 318.783 43.3754 317.531 48.7127Z" fill="#222222"/>
</svg>
