<svg width="128" height="20" viewBox="0 0 128 20" fill="none" xmlns="http://www.w3.org/2000/svg">
<path d="M5.66303 14.28C5.66303 15.3491 7.05939 15.96 9.92969 15.96C11.0158 15.96 11.7915 15.8836 12.4121 15.8073C12.9551 15.7309 13.343 15.5782 13.5757 15.4255C13.7309 15.2727 13.8861 15.0436 13.8861 14.8146C13.8861 14.5091 13.8085 14.28 13.5757 14.1273C13.343 13.9746 12.9551 13.8982 12.4121 13.8218C11.7915 13.7455 10.783 13.6691 9.38666 13.5164C7.21454 13.3636 5.50788 13.0582 4.18909 12.6764C2.8703 12.2946 1.86182 11.76 1.24121 10.9964C0.620606 10.3091 0.232727 9.31638 0.232727 8.17092C0.232727 6.64365 1.00848 5.42183 2.63757 4.58183C4.18909 3.74183 6.36121 3.36002 9.15393 3.36002C12.257 3.36002 14.5842 3.8182 16.2909 4.73456C17.92 5.65092 18.8509 6.9491 18.9285 8.6291H13.1879C13.1879 8.09456 12.8776 7.7891 12.1794 7.56001C11.5588 7.33092 10.4727 7.25456 9.07636 7.25456C7.83515 7.25456 6.98181 7.33092 6.51636 7.48365C6.05091 7.63638 5.81818 7.86547 5.81818 8.17092C5.81818 8.40001 5.89575 8.6291 6.12848 8.70547C6.36121 8.85819 6.74909 8.93456 7.36969 9.08729C7.9903 9.16365 8.92121 9.31638 10.1624 9.39274C12.4121 9.54547 14.1964 9.77456 15.4376 10.08C16.6788 10.3091 17.6873 10.8436 18.3854 11.4546C19.0836 12.1418 19.4715 13.1346 19.4715 14.4327C19.4715 16.3418 18.6957 17.64 17.1442 18.48C15.5927 19.2436 13.2654 19.7018 10.1624 19.7018C6.90424 19.7018 4.42182 19.2436 2.71515 18.4036C1.00848 17.5636 0.0775757 16.1127 0 14.2036H5.66303V14.28Z" fill="white"/>
<path d="M44.529 15.2727L48.0975 3.89453H53.6054L48.5629 19.3963H40.7278L36.6163 7.71271L32.4272 19.3963H24.592L19.5496 3.89453H25.0575L28.626 15.2727L32.9702 3.89453H40.1848L44.529 15.2727Z" fill="white"/>
<path d="M65.3184 19.3963H70.2833L64.7754 3.89453H56.9402L51.8978 19.3963H57.4057L58.259 16.7236H64.3099L65.3184 19.3963ZM59.4227 12.8291L60.9742 8.01816L62.836 12.8291H59.4227Z" fill="white"/>
<path d="M71.2919 7.10178C72.1452 5.87996 73.3088 4.9636 74.7828 4.35269C76.2567 3.74178 77.9634 3.43633 79.9028 3.43633C81.687 3.43633 83.2385 3.66542 84.6349 4.19996C86.0312 4.73451 87.1173 5.42178 87.8931 6.33814C88.5137 7.02541 88.9016 7.86541 89.0567 8.70541H82.7731C82.6179 8.62905 82.4628 8.47632 82.3076 8.39996C81.7646 8.0945 80.9888 7.94178 79.9028 7.94178C78.4288 7.94178 77.4203 8.32359 76.7222 9.01087C76.024 9.69814 75.7137 10.6145 75.7137 11.8363C75.7137 13.0581 76.1016 14.0509 76.7997 14.7381C77.4979 15.4254 78.8167 15.7309 80.601 15.7309C81.4543 15.7309 82.1525 15.6545 82.8506 15.5018C83.4713 15.349 84.1694 15.1963 84.79 14.8909V13.9745H79.9028V10.1563H89.2119V17.64C87.7379 18.48 86.264 19.0145 84.8676 19.32C83.4713 19.6254 81.9197 19.7781 80.2906 19.7781C78.2737 19.7781 76.4119 19.4727 74.8604 18.8618C73.3088 18.2509 72.1452 17.3345 71.2919 16.1127C70.4385 14.8909 70.0507 13.3636 70.0507 11.6072C70.0507 9.85087 70.5161 8.39996 71.2919 7.10178Z" fill="white"/>
<path d="M106.981 10.1719H109.618V14.0157H106.981V15.9H101.55V14.0157H91V10.1719L101.55 0.599976H106.981V10.1719ZM101.55 5.27288L96.12 10.1719H101.55V5.27288Z" fill="white" fill-opacity="0.4"/>
<path d="M126.362 7.79048C125.603 8.53211 124.768 9.05124 123.781 9.42206C122.795 9.79287 121.58 10.1637 120.138 10.5345C119.152 10.757 118.393 10.9795 117.937 11.202C117.406 11.3503 117.103 11.5728 116.951 11.8694H127.272V15.8H110.5V13.501C110.5 12.3886 110.879 11.4986 111.562 10.757C112.246 10.0154 113.08 9.42206 114.067 9.05124C115.054 8.60627 116.268 8.16129 117.786 7.71632C118.772 7.41967 119.455 7.19718 120.062 6.97469C120.594 6.7522 121.049 6.52971 121.429 6.23306C121.808 5.93641 121.96 5.63976 121.96 5.26895C121.96 4.82397 121.808 4.45316 121.429 4.23067C121.049 4.00818 120.442 3.85986 119.607 3.85986C117.406 3.85986 116.344 4.60148 116.344 6.08474H110.804C111.031 4.15651 111.942 2.67325 113.536 1.70914C115.205 0.745025 117.254 0.300049 119.759 0.300049C122.188 0.300049 124.085 0.670862 125.451 1.48665C126.817 2.30244 127.5 3.41488 127.5 4.89813C127.424 6.08474 127.045 7.04885 126.362 7.79048Z" fill="white" fill-opacity="0.4"/>
</svg>
