<svg xmlns="http://www.w3.org/2000/svg" width="68.172" height="15" fill="none" viewBox="0 0 50 11"><g clip-path="url(#a)"><path fill="#1C2B33" d="M18.366.377h1.891l3.216 5.816L26.688.377h1.85v9.557h-1.543V2.609l-2.82 5.072h-1.447L19.91 2.61v7.325h-1.543V.377zm15.148 9.729c-.714 0-1.342-.158-1.884-.475a3.318 3.318 0 0 1-1.266-1.314c-.303-.56-.454-1.201-.454-1.925 0-.732.148-1.38.444-1.945a3.313 3.313 0 0 1 1.232-1.325c.525-.318 1.13-.477 1.812-.477.678 0 1.262.16 1.751.48.49.322.866.771 1.13 1.349.264.578.396 1.256.396 2.034v.424h-5.236c.096.582.331 1.04.706 1.375.376.335.85.502 1.424.502.46 0 .855-.068 1.188-.205.332-.137.644-.344.935-.621l.819 1.003c-.815.747-1.814 1.12-2.997 1.12zm1.127-5.67c-.324-.33-.747-.494-1.27-.494-.51 0-.937.168-1.28.505-.344.337-.561.79-.652 1.358h3.755c-.046-.582-.23-1.039-.553-1.369zm3.904-.358h-1.42V2.815h1.42V.727h1.488v2.088h2.158v1.263h-2.158V7.28c0 .532.091.912.273 1.14.182.228.494.341.936.341.195 0 .361-.008.498-.024s.287-.037.45-.065v1.25a4.48 4.48 0 0 1-1.236.17c-1.605 0-2.409-.878-2.409-2.635V4.078zm11.401 5.857h-1.461V8.94c-.26.373-.59.66-.99.863-.4.203-.855.304-1.365.304-.628 0-1.185-.16-1.67-.481A3.303 3.303 0 0 1 43.318 8.3c-.277-.562-.416-1.205-.416-1.928 0-.728.141-1.372.423-1.932a3.28 3.28 0 0 1 1.17-1.318c.5-.318 1.072-.477 1.718-.477.487 0 .923.094 1.31.283.382.184.712.46.963.802v-.915h1.46v7.12zm-1.488-4.628a2.03 2.03 0 0 0-.755-.96 2.064 2.064 0 0 0-1.19-.35c-.638 0-1.146.213-1.523.64-.378.429-.567 1.007-.567 1.735 0 .733.182 1.313.546 1.74.364.428.858.642 1.482.642.46 0 .869-.118 1.228-.355a2 2 0 0 0 .779-.955V5.307z"/><path fill="url(#b)" d="M4.402.055h-.015l-.02 1.643h.014c1.082 0 1.92.853 3.744 3.925l.111.187.008.012 1.02-1.532-.007-.012c-.24-.39-.47-.75-.692-1.078-.257-.38-.502-.72-.74-1.024C6.617.64 5.608.055 4.401.055z"/><path fill="url(#c)" d="M4.387.055c-1.213.006-2.286.79-3.06 1.99a2.734 2.734 0 0 0-.007.011l1.422.774.007-.01c.452-.681 1.015-1.115 1.618-1.122h.014L4.4.055h-.014z"/><path fill="url(#d)" d="m1.327 2.047-.007.01C.81 2.85.432 3.822.227 4.871l-.003.013 1.597.377c0-.005.002-.01.003-.014.17-.921.495-1.776.917-2.416l.007-.01-1.421-.774z"/><path fill="url(#e)" d="M1.824 5.248.227 4.87l-.003.014a9.297 9.297 0 0 0-.17 1.764l1.638.147v-.014l-.002-.104a7.887 7.887 0 0 1 .134-1.43z"/><path fill="url(#f)" d="M1.742 7.305a3.421 3.421 0 0 1-.05-.511v-.015L.054 6.633v.015a5.57 5.57 0 0 0 .092 1.038l1.598-.368-.002-.013z"/><path fill="url(#g)" d="M2.115 8.154c-.178-.194-.304-.475-.37-.834-.002-.004-.002-.009-.003-.013l-1.598.367.002.014c.121.634.358 1.163.697 1.562a3.9 3.9 0 0 0 .01.011l1.272-1.096a1.325 1.325 0 0 1-.01-.01z"/><path fill="#0082FB" d="M6.85 3.607a200.763 200.763 0 0 0-1.547 2.404C4.02 8.02 3.576 8.472 2.863 8.472a.976.976 0 0 1-.748-.319L.843 9.25a3.9 3.9 0 0 0 .01.01c.468.547 1.129.85 1.947.85 1.237 0 2.127-.584 3.71-3.35l1.113-1.966a25.933 25.933 0 0 0-.774-1.186z"/><path fill="url(#h)" d="M8.566 1.277a9.92 9.92 0 0 0-.741.9c.237.304.483.644.74 1.024.303-.467.585-.845.862-1.135l.01-.01-.871-.779z"/><path fill="#0082FB" d="M13.24 1.131C12.57.453 11.769.055 10.913.055c-.902 0-1.661.494-2.346 1.221a3.25 3.25 0 0 0-.01.01l.87.78.01-.011c.452-.47.889-.704 1.373-.704.52 0 1.008.246 1.43.675l.01.01 1.002-.895-.01-.01z"/><path fill="url(#i)" d="M15.182 6.417c-.037-2.178-.8-4.126-1.931-5.276l-.01-.01-1.002.895.01.01c.851.875 1.435 2.5 1.489 4.38v.015h1.444v-.014z"/><path fill="url(#j)" d="M15.182 6.433v-.015h-1.444v.014c.002.088.003.177.003.266 0 .513-.076.927-.232 1.226l-.007.013 1.077 1.12.008-.011c.391-.604.597-1.442.597-2.459 0-.051 0-.103-.002-.154z"/><path fill="url(#k)" d="m13.51 7.922-.008.013a.95.95 0 0 1-.578.494l.491 1.547a2.207 2.207 0 0 0 1.164-.92l.008-.013-1.078-1.121z"/><path fill="url(#l)" d="M12.611 8.47c-.165 0-.31-.024-.452-.087l-.503 1.584c.283.097.584.14.92.14.31 0 .595-.046.852-.135l-.49-1.547a1.102 1.102 0 0 1-.327.046z"/><path fill="url(#m)" d="m11.605 7.93-.01-.01-1.156 1.203.01.01c.402.429.785.695 1.22.84l.503-1.583c-.183-.079-.36-.221-.567-.46z"/><path fill="url(#n)" d="M11.596 7.919c-.347-.404-.777-1.076-1.452-2.162l-.88-1.468-.007-.012-1.02 1.532.006.012.624 1.049c.604 1.011 1.097 1.743 1.572 2.252l.01.01 1.156-1.202a1.48 1.48 0 0 1-.01-.011z"/></g><defs><linearGradient id="b" x1="8.586" x2="5.197" y1="5.199" y2=".758" gradientUnits="userSpaceOnUse"><stop offset=".001" stop-color="#0867DF"/><stop offset=".454" stop-color="#0668E1"/><stop offset=".859" stop-color="#0064E0"/></linearGradient><linearGradient id="c" x1="1.988" x2="4.311" y1="2.322" y2=".558" gradientUnits="userSpaceOnUse"><stop offset=".132" stop-color="#0064DF"/><stop offset=".999" stop-color="#0064E0"/></linearGradient><linearGradient id="d" x1="1.003" x2="1.935" y1="4.912" y2="2.565" gradientUnits="userSpaceOnUse"><stop offset=".015" stop-color="#0072EC"/><stop offset=".688" stop-color="#0064DF"/></linearGradient><linearGradient id="e" x1=".876" x2=".984" y1="6.607" y2="5.174" gradientUnits="userSpaceOnUse"><stop offset=".073" stop-color="#007CF6"/><stop offset=".994" stop-color="#0072EC"/></linearGradient><linearGradient id="f" x1=".936" x2=".858" y1="7.383" y2="6.809" gradientUnits="userSpaceOnUse"><stop offset=".073" stop-color="#007FF9"/><stop offset="1" stop-color="#007CF6"/></linearGradient><linearGradient id="g" x1=".89" x2="1.371" y1="7.536" y2="8.556" gradientUnits="userSpaceOnUse"><stop offset=".073" stop-color="#007FF9"/><stop offset="1" stop-color="#0082FB"/></linearGradient><linearGradient id="h" x1="8.279" x2="8.915" y1="2.602" y2="1.723" gradientUnits="userSpaceOnUse"><stop offset=".28" stop-color="#007FF8"/><stop offset=".914" stop-color="#0082FB"/></linearGradient><linearGradient id="i" x1="13.112" x2="14.441" y1="1.461" y2="6.352" gradientUnits="userSpaceOnUse"><stop stop-color="#0082FB"/><stop offset="1" stop-color="#0081FA"/></linearGradient><linearGradient id="j" x1="14.762" x2="13.921" y1="6.541" y2="8.241" gradientUnits="userSpaceOnUse"><stop offset=".062" stop-color="#0081FA"/><stop offset="1" stop-color="#0080F9"/></linearGradient><linearGradient id="k" x1="13.252" x2="14.039" y1="9.141" y2="8.605" gradientUnits="userSpaceOnUse"><stop stop-color="#027AF3"/><stop offset="1" stop-color="#0080F9"/></linearGradient><linearGradient id="l" x1="12.018" x2="13.111" y1="9.245" y2="9.245" gradientUnits="userSpaceOnUse"><stop stop-color="#0377EF"/><stop offset=".999" stop-color="#0279F1"/></linearGradient><linearGradient id="m" x1="11.068" x2="11.854" y1="8.645" y2="9.107" gradientUnits="userSpaceOnUse"><stop offset=".002" stop-color="#0471E9"/><stop offset="1" stop-color="#0377EF"/></linearGradient><linearGradient id="n" x1="8.671" x2="11.188" y1="5.235" y2="8.4" gradientUnits="userSpaceOnUse"><stop offset=".277" stop-color="#0867DF"/><stop offset="1" stop-color="#0471E9"/></linearGradient><clipPath id="a"><path fill="#fff" d="M0 0h50v11H0z"/></clipPath></defs></svg>